<svg width="45" height="45" viewBox="0 0 45 45" fill="none" xmlns="http://www.w3.org/2000/svg">
<g clip-path="url(#clip0_130_1048)">
<path d="M22.983 15.7665C24.5918 15.7665 25.8961 14.5042 25.8961 12.947C25.8961 11.3898 24.5918 10.1274 22.983 10.1274C21.3741 10.1274 20.0698 11.3898 20.0698 12.947C20.0698 14.5042 21.3741 15.7665 22.983 15.7665Z" stroke="#6184FF" stroke-width="1.5" stroke-miterlimit="10"/>
<path d="M17.5062 23.9997L14.8261 21.4058L12.146 23.9997" stroke="#6184FF" stroke-width="1.5" stroke-miterlimit="10"/>
<path d="M14.8262 21.4058V27.6088" stroke="#6184FF" stroke-width="1.5" stroke-miterlimit="10"/>
<path d="M28.4595 25.0146L31.1396 27.6086L33.8196 25.0146" stroke="#6184FF" stroke-width="1.5" stroke-miterlimit="10"/>
<path d="M31.1396 27.6088V21.4058" stroke="#6184FF" stroke-width="1.5" stroke-miterlimit="10"/>
<path d="M30.8045 32.8108C31.0787 33.1725 31.1933 33.6249 31.123 34.0684C31.0526 34.5119 30.8032 34.9102 30.4294 35.1757C30.0557 35.4412 29.5883 35.552 29.13 35.484C28.6718 35.4159 28.2603 35.1744 27.986 34.8127L22.9827 28.2149L17.9867 34.8127C17.7124 35.1744 17.3009 35.4159 16.8427 35.484C16.3844 35.552 15.917 35.4412 15.5433 35.1757C15.1695 34.9102 14.92 34.5119 14.8497 34.0684C14.7794 33.6249 14.8939 33.1725 15.1682 32.8108L20.0696 26.3399V20.87L14.8405 17.1905C14.5237 16.9755 14.3082 16.6475 14.2412 16.2787C14.1743 15.9099 14.2615 15.5304 14.4836 15.2238C14.7058 14.9173 15.0446 14.7086 15.4257 14.6438C15.8067 14.5791 16.1988 14.6635 16.5155 14.8785L20.9799 18.0223H24.9855L29.4134 14.9067C29.7264 14.687 30.1166 14.5966 30.4983 14.6555C30.6874 14.6846 30.8686 14.7495 31.0317 14.8464C31.1948 14.9433 31.3366 15.0704 31.449 15.2203C31.5614 15.3703 31.6421 15.5402 31.6867 15.7204C31.7312 15.9005 31.7386 16.0874 31.7085 16.2704C31.6784 16.4533 31.6114 16.6287 31.5113 16.7866C31.4111 16.9445 31.2799 17.0817 31.1249 17.1905L25.8958 20.87V26.3399L30.8045 32.8108Z" stroke="#6184FF" stroke-width="1.5" stroke-miterlimit="10"/>
</g>
<circle cx="22.5" cy="22.5" r="22" stroke="#E5E5E5"/>
<defs>
<clipPath id="clip0_130_1048">
<rect width="27.9661" height="27.0677" fill="white" transform="translate(9 9)"/>
</clipPath>
</defs>
</svg>
