<svg width="47" height="46" viewBox="0 0 47 46" fill="none" xmlns="http://www.w3.org/2000/svg">
<path d="M46.3138 22.6013C46.3138 34.7675 36.1191 44.6577 23.5087 44.6577C10.8983 44.6577 0.703613 34.7675 0.703613 22.6013C0.703613 10.4352 10.8983 0.544922 23.5087 0.544922C36.1191 0.544922 46.3138 10.4352 46.3138 22.6013Z" stroke="#E5E5E5"/>
<path fill-rule="evenodd" clip-rule="evenodd" d="M17.0068 11.1103L16.8965 11.2205V12.5026V13.7847H14.6346C12.303 13.7847 12.1348 13.7965 12.044 13.9662C12.0158 14.0189 12 16.9471 12 22.1381V30.2278L12.1103 30.338L12.2205 30.4483H14.3976C15.595 30.4483 16.6074 30.4357 16.6474 30.4204C16.6874 30.4051 16.7513 30.3323 16.7894 30.2586C16.8756 30.092 16.8118 29.9016 16.6442 29.8253C16.567 29.7901 15.9417 29.7746 14.6034 29.7746H12.6738V22.1165V14.4585H14.7852H16.8965V14.8178V15.1771H15.3309C14.3536 15.1771 13.7145 15.1948 13.6301 15.2243C13.5557 15.2502 13.4718 15.3219 13.4437 15.3836C13.4063 15.4656 13.3926 17.1002 13.3926 21.4694V27.4431L13.5029 27.5533L13.6131 27.6636H23.5H33.3869L33.4971 27.5533L33.6074 27.4431L33.606 24.937C33.6045 22.2524 33.6105 22.3239 33.3772 22.2352C33.2441 22.1846 33.0067 22.2702 32.9628 22.3847C32.9467 22.4265 32.9336 23.4798 32.9336 24.7253V26.9898H31.5184H30.1031L30.1146 22.1278L30.126 17.2657L31.5298 17.2538L32.9336 17.242V19.2139C32.9336 21.0736 32.9384 21.1917 33.0176 21.2896C33.1344 21.4338 33.4066 21.4338 33.5234 21.2896C33.6035 21.1906 33.6074 21.0536 33.6074 18.3408C33.6074 16.31 33.5928 15.4636 33.5563 15.3836C33.5282 15.3219 33.4443 15.2502 33.3699 15.2243C33.2855 15.1948 32.6459 15.1771 31.6672 15.1771H30.0997L30.1129 14.829L30.126 14.4809L32.2261 14.4693L34.3262 14.4576V22.1161V29.7746H26.1308C21.2778 29.7746 17.8914 29.7914 17.8273 29.8157C17.5985 29.9027 17.574 30.2852 17.7898 30.4007C17.8486 30.4321 18.5357 30.4483 19.8134 30.4483H21.748V31.1856V31.9228L21.0181 31.9379C20.3058 31.9526 20.2808 31.9564 19.9871 32.0955C19.4586 32.3459 19.1127 32.7998 19.0049 33.3843C18.9477 33.6952 18.9984 33.8676 19.1702 33.9459C19.3286 34.018 27.6714 34.018 27.8298 33.9459C27.9998 33.8684 28.0523 33.6947 27.9965 33.3933C27.9036 32.8906 27.6516 32.4903 27.2678 32.2356C26.8942 31.9876 26.6371 31.9305 25.8951 31.9305H25.252V31.1894V30.4483H30.0157H34.7795L34.8897 30.338L35 30.2278V22.1381C35 16.9471 34.9842 14.0189 34.956 13.9662C34.8652 13.7965 34.697 13.7847 32.3654 13.7847H30.1035V12.4855V11.1862L29.9851 11.0931C29.8723 11.0043 29.8125 11 28.6885 11C27.5644 11 27.5047 11.0043 27.3918 11.0931C27.2371 11.2148 27.2304 11.438 27.3774 11.5761C27.4776 11.6701 27.5172 11.6737 28.4555 11.6737H29.4297V19.3318V26.9898H23.5H17.5703V19.3318V11.6737H21.9073H26.2443L26.3546 11.5635C26.4951 11.423 26.4951 11.2508 26.3546 11.1103L26.2443 11H21.6807H17.117L17.0068 11.1103ZM22.9385 13.8483C21.8274 14.0651 20.9172 14.8445 20.5533 15.8906C19.9562 17.6074 20.9316 19.4475 22.6982 19.937C23.1397 20.0593 23.8082 20.0604 24.2812 19.9394C24.8327 19.7984 25.2161 19.5712 25.6837 19.1082C26.0205 18.7748 26.126 18.6353 26.2787 18.3212C26.5325 17.7992 26.615 17.4502 26.613 16.9064C26.611 16.3862 26.5272 16.0165 26.3073 15.5589C25.9262 14.7659 25.1327 14.1133 24.2861 13.8968C23.8967 13.7972 23.3086 13.776 22.9385 13.8483ZM23.9043 14.506C24.8075 14.6508 25.5955 15.364 25.8615 16.2775C25.9704 16.6513 25.9607 17.2651 25.8399 17.6507C25.7485 17.9423 25.4728 18.4205 25.3271 18.54C25.2581 18.5967 25.252 18.5747 25.2517 18.2705C25.2512 17.6585 25.1119 17.4145 24.6739 17.2592C24.4724 17.1878 24.4433 17.163 24.47 17.086C24.4871 17.0366 24.5102 16.7778 24.5212 16.5108C24.5401 16.0537 24.5342 16.0111 24.42 15.7777C24.0398 15.0006 22.9602 15.0006 22.58 15.7777C22.4658 16.0111 22.4599 16.0537 22.4788 16.5108C22.4898 16.7778 22.5129 17.0366 22.53 17.086C22.5567 17.163 22.5276 17.1878 22.3261 17.2592C21.8881 17.4145 21.7488 17.6585 21.7483 18.2705C21.748 18.5747 21.7419 18.5967 21.6729 18.54C21.5272 18.4205 21.2515 17.9423 21.1601 17.6507C21.0393 17.2651 21.0296 16.6513 21.1385 16.2775C21.3408 15.5829 21.7948 15.0398 22.43 14.7323C22.9516 14.4799 23.3552 14.4179 23.9043 14.506ZM14.7852 16.2102V16.5695H14.4258H14.0664V16.2401C14.0664 16.0589 14.0799 15.8972 14.0964 15.8808C14.1128 15.8643 14.2745 15.8508 14.4557 15.8508H14.7852V16.2102ZM16.8965 16.2102V16.5695H16.1777H15.459V16.2401C15.459 16.0589 15.4725 15.8972 15.4889 15.8808C15.5054 15.8643 15.8288 15.8508 16.2077 15.8508H16.8965V16.2102ZM23.649 15.9031C23.8241 15.9964 23.8565 16.0843 23.8579 16.4705C23.8592 16.8072 23.8488 16.8537 23.7491 16.9533C23.6032 17.0992 23.3968 17.0992 23.2509 16.9533C23.1512 16.8537 23.1408 16.8072 23.1421 16.4705C23.1435 16.0898 23.1749 16.0014 23.3428 15.9051C23.4582 15.8389 23.5276 15.8385 23.649 15.9031ZM32.9336 16.2102V16.5695H31.5186H30.1035V16.2401C30.1035 16.0589 30.117 15.8972 30.1335 15.8808C30.1499 15.8643 30.7867 15.8508 31.5485 15.8508H32.9336V16.2102ZM16.8965 22.1165V26.9898H15.4814H14.0664V22.1165V17.2432H15.4814H16.8965V22.1165ZM24.1992 17.833L24.5806 17.9286L24.5681 18.5375L24.5557 19.1463L24.3086 19.2382C23.9526 19.3706 23.0474 19.3706 22.6914 19.2382L22.4443 19.1463L22.4319 18.537L22.4194 17.9276L22.7688 17.8368C23.2385 17.7147 23.7226 17.7134 24.1992 17.833ZM20.4672 20.8819C20.3551 21.0059 20.363 21.2232 20.484 21.3443L20.5826 21.4428H23.5H26.4174L26.516 21.3443C26.637 21.2232 26.6449 21.0059 26.5328 20.8819C26.4523 20.7931 26.4002 20.7915 23.5 20.7915C20.5998 20.7915 20.5477 20.7931 20.4672 20.8819ZM20.5392 22.1879C20.307 22.2808 20.2395 22.5399 20.4021 22.7144C20.4901 22.8089 20.5271 22.8127 21.3455 22.8127C22.1374 22.8127 22.2036 22.8064 22.2871 22.7229C22.4581 22.5519 22.3844 22.2715 22.1466 22.1886C21.9721 22.1278 20.691 22.1273 20.5392 22.1879ZM23.2599 22.2661C23.1532 22.3839 23.1641 22.6446 23.2801 22.7496C23.3692 22.8302 23.463 22.8352 24.896 22.8352C26.4024 22.8352 26.4184 22.8342 26.516 22.7366C26.637 22.6156 26.6449 22.3982 26.5328 22.2743C26.4537 22.187 26.3972 22.1839 24.8926 22.1839C23.4399 22.1839 23.3292 22.1895 23.2599 22.2661ZM20.4021 23.6746C20.233 23.8561 20.3019 24.1171 20.5409 24.2004C20.6199 24.2279 20.9774 24.25 21.3438 24.25C22.0307 24.25 22.2582 24.2083 22.333 24.0686C22.4037 23.9365 22.3839 23.7629 22.2871 23.6661C22.2036 23.5826 22.1374 23.5763 21.3455 23.5763C20.5271 23.5763 20.4901 23.5801 20.4021 23.6746ZM23.2854 23.6462C23.1498 23.7411 23.1468 24.0213 23.2801 24.142C23.3683 24.2219 23.4726 24.2284 24.8703 24.2405L26.366 24.2534L26.4903 24.1465C26.6382 24.0194 26.6572 23.8042 26.5328 23.6667C26.4538 23.5795 26.3971 23.5763 24.9181 23.5763C23.6034 23.5763 23.371 23.5862 23.2854 23.6462ZM22.5771 28.4925C22.5164 28.5531 22.4668 28.6551 22.4668 28.7191C22.4668 28.7831 22.5164 28.885 22.5771 28.9457C22.686 29.0546 22.6971 29.0559 23.5 29.0559C24.3029 29.0559 24.314 29.0546 24.4229 28.9457C24.4836 28.885 24.5332 28.7831 24.5332 28.7191C24.5332 28.6551 24.4836 28.5531 24.4229 28.4925C24.314 28.3835 24.3029 28.3822 23.5 28.3822C22.6971 28.3822 22.686 28.3835 22.5771 28.4925ZM24.5557 31.1894V31.9081H23.5H22.4443L22.4318 31.2363C22.425 30.8668 22.4296 30.538 22.442 30.5056C22.46 30.4588 22.68 30.4491 23.5102 30.4587L24.5557 30.4708V31.1894ZM26.6797 32.6739C26.9243 32.7759 27.2734 33.143 27.2734 33.2982C27.2734 33.3118 25.5754 33.3229 23.5 33.3229C21.4223 33.3229 19.7266 33.3055 19.7266 33.2843C19.7266 33.2295 19.9485 32.9093 20.0355 32.8383C20.0756 32.8057 20.1893 32.7401 20.2881 32.6926C20.4598 32.61 20.6014 32.6062 23.4902 32.6052C26.1205 32.6044 26.5343 32.6133 26.6797 32.6739Z" fill="#6184FF"/>
</svg>
