<svg width="17" height="16" viewBox="0 0 17 16" fill="none" xmlns="http://www.w3.org/2000/svg">
<path d="M15.9234 11.0743L12.0105 8.72619C11.8728 8.64369 11.7156 8.60019 11.5551 8.60019C11.3187 8.60019 11.0934 8.6941 10.9269 8.8618C9.73199 10.0654 9.73769 11.0002 8.88389 11.0002C8.63819 11.0002 8.4027 10.9027 8.22899 10.729L5.7717 8.2717C5.5977 8.09769 5.5002 7.8622 5.5002 7.6165C5.5002 6.7627 6.435 6.76839 7.6386 5.57349C7.80629 5.40699 7.9002 5.18169 7.9002 4.94529C7.9002 4.78479 7.85639 4.62759 7.77419 4.49019L5.4261 0.576995C5.286 0.343295 5.03339 0.200195 4.76099 0.200195C4.64849 0.200195 4.5393 0.223895 4.4373 0.270695C3.6984 0.610895 0.700195 2.2177 0.700195 5.9002C0.700195 6.8605 1.0818 7.78179 1.761 8.46099L8.03969 14.7397C8.71859 15.4186 9.6396 15.8002 10.6002 15.8002C14.2827 15.8002 15.8895 12.8023 16.2297 12.0634C16.2765 11.9611 16.3002 11.8519 16.3002 11.7394C16.3002 11.467 16.1571 11.2144 15.9234 11.0743Z" fill="#C4C4C4"/>
</svg>
