<svg width="15" height="15" viewBox="0 0 15 15" fill="none" xmlns="http://www.w3.org/2000/svg">
<path fill-rule="evenodd" clip-rule="evenodd" d="M7.5 1.25C10.9462 1.25 13.75 4.05375 13.75 7.5C13.75 10.9462 10.9462 13.75 7.5 13.75C4.05375 13.75 1.25 10.9462 1.25 7.5C1.25 4.05375 4.05375 1.25 7.5 1.25ZM7.5 2.1875C4.57063 2.1875 2.1875 4.57063 2.1875 7.5C2.1875 10.4294 4.57063 12.8125 7.5 12.8125C10.4294 12.8125 12.8125 10.4294 12.8125 7.5C12.8125 4.57063 10.4294 2.1875 7.5 2.1875ZM7.28825 4.43462C7.54762 4.43462 7.757 4.64462 7.757 4.90337V7.66712L9.88513 8.93588C10.107 9.069 10.1801 9.3565 10.0476 9.579C9.9595 9.72587 9.80387 9.80775 9.6445 9.80775C9.56262 9.80775 9.48013 9.7865 9.4045 9.74213L7.04825 8.3365C6.907 8.2515 6.8195 8.09838 6.8195 7.93338V4.90337C6.8195 4.64462 7.0295 4.43462 7.28825 4.43462Z" fill="#227FD6"/>
</svg>
