<svg width="18" height="19" viewBox="0 0 18 19" fill="none" xmlns="http://www.w3.org/2000/svg">
<path d="M16.4234 12.5743L12.5105 10.2262C12.3728 10.1437 12.2156 10.1002 12.0551 10.1002C11.8187 10.1002 11.5934 10.1941 11.4269 10.3618C10.232 11.5654 10.2377 12.5002 9.38389 12.5002C9.13819 12.5002 8.9027 12.4027 8.72899 12.229L6.2717 9.7717C6.0977 9.59769 6.0002 9.3622 6.0002 9.1165C6.0002 8.2627 6.935 8.26839 8.1386 7.07349C8.30629 6.90699 8.4002 6.68169 8.4002 6.44529C8.4002 6.28479 8.35639 6.12759 8.27419 5.99019L5.9261 2.077C5.786 1.8433 5.53339 1.7002 5.26099 1.7002C5.14849 1.7002 5.0393 1.7239 4.9373 1.7707C4.1984 2.1109 1.2002 3.7177 1.2002 7.4002C1.2002 8.3605 1.5818 9.28179 2.261 9.96099L8.53969 16.2397C9.21859 16.9186 10.1396 17.3002 11.1002 17.3002C14.7827 17.3002 16.3895 14.3023 16.7297 13.5634C16.7765 13.4611 16.8002 13.3519 16.8002 13.2394C16.8002 12.967 16.6571 12.7144 16.4234 12.5743Z" fill="#C4C4C4"/>
</svg>
