<svg width="180" height="43" viewBox="0 0 180 43" fill="none" xmlns="http://www.w3.org/2000/svg">
<path d="M3.99043 21.0001H0.70166L8.09137 0.465332H11.6709L19.0606 21.0001H15.7718L9.96637 4.19528H9.80594L3.99043 21.0001ZM4.5419 12.9586H15.2104V15.5656H4.5419V12.9586Z" fill="white"/>
<path d="M20.4719 21.0001V18.3129L21.0735 18.2929C21.889 18.2728 22.5307 17.9954 22.9986 17.4607C23.4732 16.9259 23.8175 16.0636 24.0314 14.8738C24.252 13.6839 24.399 12.0963 24.4725 10.1111L24.8235 0.465332H37.8081V21.0001H34.75V3.09234H27.7413L27.4204 10.9332C27.3335 13.1324 27.1129 14.9807 26.7586 16.478C26.4044 17.9687 25.8028 19.095 24.9538 19.857C24.1116 20.6191 22.9117 21.0001 21.3542 21.0001H20.4719Z" fill="white"/>
<path d="M44.4959 8.74742H50.0307C51.5548 8.74742 52.8516 8.99474 53.9211 9.4894C54.9906 9.98405 55.8061 10.6826 56.3676 11.585C56.9358 12.4874 57.2165 13.5502 57.2099 14.7735C57.2165 15.9968 56.9358 17.0763 56.3676 18.0121C55.8061 18.948 54.9906 19.6799 53.9211 20.208C52.8516 20.7361 51.5548 21.0001 50.0307 21.0001H42.3402V0.465332H45.4485V18.3931H50.0307C50.9197 18.3931 51.6684 18.2193 52.2767 17.8717C52.8917 17.5242 53.3562 17.073 53.6704 16.5181C53.9913 15.9633 54.1517 15.3684 54.1517 14.7334C54.1517 13.8109 53.7974 13.0188 53.0889 12.357C52.3803 11.6886 51.3609 11.3544 50.0307 11.3544H44.4959V8.74742Z" fill="white"/>
<path d="M60.9874 21.0001V0.465332H73.7916V3.13244H64.0857V8.74742H68.6779C70.202 8.74742 71.4954 8.99474 72.5583 9.4894C73.6278 9.98405 74.4433 10.6826 75.0048 11.585C75.573 12.4874 75.8571 13.5502 75.8571 14.7735C75.8571 15.9968 75.573 17.0763 75.0048 18.0121C74.4433 18.948 73.6278 19.6799 72.5583 20.208C71.4954 20.7361 70.202 21.0001 68.6779 21.0001H60.9874ZM64.0857 18.3931H68.6779C69.5603 18.3931 70.3056 18.2193 70.9139 17.8717C71.5289 17.5242 71.9934 17.073 72.3076 16.5181C72.6285 15.9633 72.7889 15.3684 72.7889 14.7334C72.7889 13.8109 72.4346 13.0188 71.7261 12.357C71.0175 11.6886 70.0015 11.3544 68.6779 11.3544H64.0857V18.3931Z" fill="white"/>
<path d="M81.2515 21.0001H77.9627L85.3524 0.465332H88.9319L96.3216 21.0001H93.0329L87.2274 4.19528H87.067L81.2515 21.0001ZM81.8029 12.9586H92.4714V15.5656H81.8029V12.9586Z" fill="white"/>
<path d="M106.759 21.0001V0.465332H114.28C115.737 0.465332 116.943 0.705974 117.899 1.18726C118.855 1.66186 119.57 2.30691 120.045 3.12242C120.52 3.93124 120.757 4.84367 120.757 5.85972C120.757 6.71533 120.6 7.43726 120.286 8.02549C119.971 8.60704 119.55 9.07496 119.022 9.42924C118.501 9.77683 117.926 10.0308 117.298 10.1913V10.3918C117.979 10.4252 118.645 10.6458 119.293 11.0536C119.948 11.4546 120.489 12.0262 120.917 12.7681C121.345 13.5101 121.559 14.4125 121.559 15.4754C121.559 16.5248 121.312 17.4673 120.817 18.3029C120.329 19.1318 119.574 19.7902 118.551 20.2782C117.528 20.7595 116.221 21.0001 114.63 21.0001H106.759ZM109.858 18.343H114.33C115.814 18.343 116.876 18.0556 117.518 17.4807C118.16 16.9058 118.481 16.1873 118.481 15.325C118.481 14.6766 118.317 14.0816 117.989 13.5402C117.662 12.9988 117.194 12.5676 116.586 12.2467C115.984 11.9259 115.269 11.7655 114.44 11.7655H109.858V18.343ZM109.858 9.34902H114.009C114.704 9.34902 115.329 9.21533 115.884 8.94795C116.445 8.68057 116.89 8.30624 117.217 7.82496C117.552 7.33699 117.719 6.76212 117.719 6.10036C117.719 5.25143 117.421 4.53953 116.826 3.96466C116.231 3.3898 115.319 3.10236 114.089 3.10236H109.858V9.34902Z" fill="white"/>
<path d="M125.234 0.465332H128.302V15.5455H128.492L138.94 0.465332H141.808V21.0001H138.71V5.93993H138.519L128.091 21.0001H125.234V0.465332Z" fill="white"/>
<path d="M145.315 3.13244V0.465332H161.207V3.13244H154.8V21.0001H151.712V3.13244H145.315Z" fill="white"/>
<path d="M164.027 21.0001H160.738L168.128 0.465332H171.708L179.097 21.0001H175.809L170.003 4.19528H169.843L164.027 21.0001ZM164.579 12.9586H175.247V15.5656H164.579V12.9586Z" fill="white"/>
<path d="M2.92822 30.4529H5.01462L7.80874 37.2727H7.91903L10.7131 30.4529H12.7995V39.8647H11.1635V33.3987H11.0762L8.4751 39.8371H7.25267L4.65157 33.3849H4.56425V39.8647H2.92822V30.4529Z" fill="#BEDFEE"/>
<path d="M14.6562 39.8647V30.4529H20.7775V31.8821H16.3611V34.4373H20.4604V35.8665H16.3611V38.4354H20.8143V39.8647H14.6562Z" fill="#BEDFEE"/>
<path d="M21.9057 42.1349V38.4722H22.5353C22.7467 38.3037 22.9443 38.0663 23.1281 37.7599C23.312 37.4535 23.4682 37.0338 23.5969 36.5007C23.7256 35.9676 23.8144 35.2783 23.8634 34.4327L24.1116 30.4529H30.1272V38.4722H31.175V42.1257H29.539V39.8647H23.5417V42.1349H21.9057ZM24.5206 38.4722H28.4912V31.8821H25.6465L25.4995 34.4327C25.4596 35.073 25.3953 35.6459 25.3064 36.1514C25.2176 36.6569 25.1058 37.1027 24.971 37.4887C24.8362 37.8717 24.686 38.1995 24.5206 38.4722Z" fill="#BEDFEE"/>
<path d="M32.564 30.4529H34.2552V36.8683H34.3425L38.7681 30.4529H40.2984V39.8647H38.5934V33.4538H38.5153L34.076 39.8647H32.564V30.4529Z" fill="#BEDFEE"/>
<path d="M50.8648 38.44L50.7407 42.0889H49.0863V39.8647H48.4245V38.44H50.8648ZM42.1562 39.8647V30.4529H43.7922V38.4492H48.0201V30.4529H49.6699V39.8647H42.1562Z" fill="#BEDFEE"/>
<path d="M52.2538 30.4529H53.945V36.8683H54.0323L58.4579 30.4529H59.9882V39.8647H58.2832V33.4538H58.2051L53.7658 39.8647H52.2538V30.4529Z" fill="#BEDFEE"/>
<path d="M61.846 39.8647V30.4529H63.5509V34.4373H67.9121V30.4529H69.6217V39.8647H67.9121V35.8665H63.5509V39.8647H61.846Z" fill="#BEDFEE"/>
<path d="M79.5321 33.6284H77.8133C77.7643 33.3466 77.6739 33.0969 77.5422 32.8794C77.4104 32.6588 77.2465 32.4719 77.0505 32.3187C76.8544 32.1655 76.6307 32.0506 76.3795 31.974C76.1313 31.8944 75.8633 31.8545 75.5753 31.8545C75.0636 31.8545 74.6102 31.9832 74.215 32.2406C73.8198 32.4949 73.5103 32.8686 73.2867 33.3619C73.063 33.8521 72.9512 34.4511 72.9512 35.1588C72.9512 35.8788 73.063 36.4854 73.2867 36.9786C73.5134 37.4688 73.8228 37.8395 74.215 38.0908C74.6102 38.3389 75.0621 38.463 75.5707 38.463C75.8525 38.463 76.116 38.4262 76.3611 38.3527C76.6093 38.2761 76.8314 38.1643 77.0275 38.0172C77.2266 37.8702 77.3936 37.6894 77.5284 37.475C77.6663 37.2605 77.7612 37.0154 77.8133 36.7397L79.5321 36.7489C79.4677 37.1962 79.3283 37.6159 79.1139 38.008C78.9025 38.4002 78.6252 38.7464 78.2821 39.0466C77.9389 39.3438 77.5376 39.5767 77.078 39.7452C76.6185 39.9106 76.1084 39.9933 75.5477 39.9933C74.7205 39.9933 73.9821 39.8019 73.3326 39.4189C72.6831 39.0359 72.1715 38.4829 71.7977 37.7599C71.4239 37.0368 71.237 36.1698 71.237 35.1588C71.237 34.1447 71.4255 33.2776 71.8023 32.5577C72.1791 31.8346 72.6923 31.2816 73.3418 30.8987C73.9913 30.5157 74.7266 30.3242 75.5477 30.3242C76.0716 30.3242 76.5587 30.3977 77.0091 30.5448C77.4595 30.6919 77.8608 30.9079 78.2131 31.1928C78.5655 31.4746 78.855 31.8208 79.0817 32.2314C79.3115 32.6389 79.4616 33.1045 79.5321 33.6284Z" fill="#BEDFEE"/>
<path d="M86.7322 39.8647L83.6348 35.7516H82.7984V39.8647H81.0934V30.4529H82.7984V34.3224H83.2258L86.5714 30.4529H88.6716L84.9537 34.7452L88.8324 39.8647H86.7322Z" fill="#BEDFEE"/>
<path d="M89.9905 30.4529H91.6817V36.8683H91.769L96.1945 30.4529H97.7249V39.8647H96.0199V33.4538H95.9418L91.5024 39.8647H89.9905V30.4529Z" fill="#BEDFEE"/>
<path d="M99.5826 39.8647V30.4529H105.704V31.8821H101.288V34.4373H105.387V35.8665H101.288V38.4354H105.741V39.8647H99.5826Z" fill="#BEDFEE"/>
<path d="M111.862 39.8647H110.042L113.356 30.4529H115.46L118.778 39.8647H116.959L114.445 32.383H114.371L111.862 39.8647ZM111.922 36.1744H116.885V37.5439H111.922V36.1744Z" fill="#BEDFEE"/>
<path d="M120.018 39.8647V30.4529H121.723V34.4373H126.084V30.4529H127.794V39.8647H126.084V35.8665H121.723V39.8647H120.018Z" fill="#BEDFEE"/>
<path d="M130.857 39.8647H129.037L132.35 30.4529H134.455L137.773 39.8647H135.953L133.439 32.383H133.366L130.857 39.8647ZM130.916 36.1744H135.88V37.5439H130.916V36.1744Z" fill="#BEDFEE"/>
<path d="M138.402 39.8647V38.4492L138.668 38.4354C139.03 38.414 139.316 38.2838 139.527 38.0448C139.742 37.8058 139.9 37.4213 140.001 36.8913C140.105 36.3613 140.174 35.6505 140.208 34.759L140.364 30.4529H146.531V39.8647H144.863V31.8545H141.954L141.807 35.2875C141.764 36.3169 141.651 37.1701 141.467 37.8472C141.286 38.5243 140.989 39.0298 140.575 39.3637C140.165 39.6977 139.593 39.8647 138.861 39.8647H138.402Z" fill="#BEDFEE"/>
<path d="M148.39 30.4529H150.081V36.8683H150.169L154.594 30.4529H156.124V39.8647H154.419V33.4538H154.341L149.902 39.8647H148.39V30.4529Z" fill="#BEDFEE"/>
<path d="M161.268 39.9933C160.606 39.9933 160.018 39.88 159.503 39.6533C158.992 39.4265 158.587 39.111 158.29 38.7066C157.993 38.3022 157.835 37.8349 157.817 37.3049H159.545C159.56 37.5592 159.644 37.7813 159.797 37.9713C159.951 38.1582 160.154 38.3037 160.409 38.4079C160.663 38.512 160.948 38.5641 161.263 38.5641C161.6 38.5641 161.899 38.5059 162.16 38.3895C162.42 38.27 162.624 38.1045 162.771 37.8932C162.918 37.6818 162.99 37.4382 162.987 37.1625C162.99 36.8775 162.916 36.6263 162.766 36.4088C162.616 36.1913 162.399 36.0212 162.114 35.8987C161.832 35.7761 161.492 35.7148 161.093 35.7148H160.262V34.4005H161.093C161.421 34.4005 161.708 34.3438 161.953 34.2305C162.201 34.1171 162.396 33.9578 162.536 33.7525C162.677 33.5442 162.746 33.3037 162.743 33.031C162.746 32.7645 162.687 32.5332 162.564 32.3371C162.445 32.1379 162.274 31.9832 162.054 31.8729C161.836 31.7626 161.581 31.7075 161.286 31.7075C160.998 31.7075 160.732 31.7596 160.487 31.8637C160.242 31.9679 160.044 32.1165 159.894 32.3095C159.744 32.4995 159.664 32.7262 159.655 32.9897H158.014C158.027 32.4627 158.178 32.0001 158.469 31.6018C158.763 31.2004 159.156 30.8879 159.646 30.6643C160.136 30.4376 160.686 30.3242 161.296 30.3242C161.924 30.3242 162.469 30.4422 162.932 30.6781C163.397 30.9109 163.757 31.225 164.012 31.6202C164.266 32.0154 164.393 32.452 164.393 32.9299C164.396 33.4599 164.24 33.9042 163.924 34.2626C163.612 34.6211 163.201 34.8555 162.693 34.9658V35.0393C163.354 35.1312 163.861 35.3763 164.214 35.7746C164.569 36.1698 164.745 36.6615 164.742 37.2498C164.742 37.7767 164.592 38.2485 164.292 38.6652C163.995 39.0788 163.584 39.4036 163.06 39.6395C162.539 39.8754 161.942 39.9933 161.268 39.9933Z" fill="#BEDFEE"/>
<path d="M167.565 34.088H169.955C170.675 34.088 171.292 34.206 171.807 34.4419C172.325 34.6747 172.721 35.0041 172.997 35.4299C173.273 35.8558 173.411 36.3567 173.411 36.9327C173.411 37.5117 173.273 38.0218 172.997 38.463C172.721 38.9011 172.325 39.2443 171.807 39.4924C171.292 39.7406 170.675 39.8647 169.955 39.8647H166.43V30.4529H168.14V38.4676H169.955C170.335 38.4676 170.656 38.3956 170.92 38.2516C171.183 38.1076 171.383 37.9177 171.517 37.6818C171.655 37.4458 171.724 37.19 171.724 36.9143C171.724 36.516 171.571 36.1775 171.265 35.8987C170.961 35.6168 170.525 35.4759 169.955 35.4759H167.565V34.088ZM175.934 30.4529V39.8647H174.224V30.4529H175.934Z" fill="#BEDFEE"/>
</svg>
