<svg width="18" height="16" viewBox="0 0 18 16" fill="none" xmlns="http://www.w3.org/2000/svg">
<path d="M0.792969 0.796875C1.82363 1.10077 2.8577 1.40805 3.88836 1.71195C3.99757 2.26909 4.11019 2.82624 4.2194 3.38338C4.646 5.94963 5.0726 8.51926 5.49578 11.0855C8.84713 11.1227 12.1951 11.1632 15.5464 11.2003C16.031 8.5564 16.5157 5.91249 17.0003 3.26858C13.881 3.23819 10.7617 3.2078 7.63901 3.18079" stroke="#61C1EB" stroke-miterlimit="10" stroke-linecap="round" stroke-linejoin="round"/>
<path d="M9.21614 13.8715C9.21614 14.692 8.54382 15.3572 7.71452 15.3572C6.88521 15.3572 6.21289 14.692 6.21289 13.8715C6.21289 13.0509 6.88521 12.3857 7.71452 12.3857C8.54382 12.3857 9.21614 13.0509 9.21614 13.8715Z" fill="#61C1EB"/>
<path d="M14.8568 13.9789C14.8568 14.7994 14.1844 15.4646 13.3551 15.4646C12.5258 15.4646 11.8535 14.7994 11.8535 13.9789C11.8535 13.1584 12.5258 12.4932 13.3551 12.4932C14.1844 12.4932 14.8568 13.1584 14.8568 13.9789Z" fill="#61C1EB"/>
</svg>
