<svg width="18" height="18" viewBox="0 0 18 18" fill="none" xmlns="http://www.w3.org/2000/svg">
<path d="M16.2232 12.0743L12.3103 9.72619C12.1726 9.64369 12.0154 9.60019 11.8549 9.60019C11.6185 9.60019 11.3932 9.6941 11.2267 9.8618C10.0318 11.0654 10.0375 12.0002 9.1837 12.0002C8.938 12.0002 8.7025 11.9027 8.5288 11.729L6.0715 9.2717C5.8975 9.09769 5.8 8.8622 5.8 8.6165C5.8 7.7627 6.7348 7.76839 7.9384 6.57349C8.1061 6.40699 8.2 6.18169 8.2 5.94529C8.2 5.78479 8.1562 5.62759 8.074 5.49019L5.7259 1.577C5.5858 1.3433 5.3332 1.2002 5.0608 1.2002C4.9483 1.2002 4.8391 1.2239 4.7371 1.2707C3.9982 1.6109 1 3.2177 1 6.9002C1 7.8605 1.3816 8.78179 2.0608 9.46099L8.3395 15.7397C9.0184 16.4186 9.9394 16.8002 10.9 16.8002C14.5825 16.8002 16.1893 13.8023 16.5295 13.0634C16.5763 12.9611 16.6 12.8519 16.6 12.7394C16.6 12.467 16.4569 12.2144 16.2232 12.0743Z" fill="#768C9F"/>
</svg>
