<svg width="16" height="17" viewBox="0 0 16 17" fill="none" xmlns="http://www.w3.org/2000/svg">
<path d="M15.4234 11.5411L11.5105 9.19299C11.3728 9.11049 11.2156 9.06699 11.0551 9.06699C10.8187 9.06699 10.5934 9.16089 10.4269 9.32859C9.23199 10.5322 9.23769 11.467 8.38389 11.467C8.13819 11.467 7.9027 11.3695 7.72899 11.1958L5.2717 8.73849C5.0977 8.56449 5.0002 8.32899 5.0002 8.08329C5.0002 7.22949 5.935 7.23519 7.1386 6.04029C7.30629 5.87379 7.4002 5.64849 7.4002 5.41209C7.4002 5.25159 7.35639 5.09439 7.27419 4.95699L4.9261 1.04379C4.786 0.810092 4.53339 0.666992 4.26099 0.666992C4.14849 0.666992 4.0393 0.690692 3.9373 0.737492C3.1984 1.07769 0.200195 2.68449 0.200195 6.36699C0.200195 7.32729 0.581795 8.24859 1.261 8.92779L7.53969 15.2065C8.21859 15.8854 9.1396 16.267 10.1002 16.267C13.7827 16.267 15.3895 13.2691 15.7297 12.5302C15.7765 12.4279 15.8002 12.3187 15.8002 12.2062C15.8002 11.9338 15.6571 11.6812 15.4234 11.5411Z" fill="#C4C4C4"/>
</svg>
