<svg width="15" height="16" viewBox="0 0 15 16" fill="none" xmlns="http://www.w3.org/2000/svg">
<path fill-rule="evenodd" clip-rule="evenodd" d="M2.25 13.0293C2.25 12.8304 2.32902 12.6396 2.46967 12.499C2.61032 12.3583 2.80109 12.2793 3 12.2793H12C12.1989 12.2793 12.3897 12.3583 12.5303 12.499C12.671 12.6396 12.75 12.8304 12.75 13.0293C12.75 13.2282 12.671 13.419 12.5303 13.5597C12.3897 13.7003 12.1989 13.7793 12 13.7793H3C2.80109 13.7793 2.61032 13.7003 2.46967 13.5597C2.32902 13.419 2.25 13.2282 2.25 13.0293ZM4.71975 7.24908C4.8604 7.10847 5.05113 7.02949 5.25 7.02949C5.44887 7.02949 5.6396 7.10847 5.78025 7.24908L6.75 8.21883V2.52933C6.75 2.33042 6.82902 2.13965 6.96967 1.999C7.11032 1.85834 7.30109 1.77933 7.5 1.77933C7.69891 1.77933 7.88968 1.85834 8.03033 1.999C8.17098 2.13965 8.25 2.33042 8.25 2.52933V8.21883L9.21975 7.24908C9.28894 7.17744 9.37169 7.12031 9.4632 7.081C9.5547 7.04169 9.65311 7.021 9.7527 7.02014C9.85228 7.01927 9.95104 7.03825 10.0432 7.07596C10.1354 7.11367 10.2191 7.16936 10.2895 7.23978C10.36 7.3102 10.4157 7.39394 10.4534 7.48611C10.4911 7.57828 10.5101 7.67704 10.5092 7.77663C10.5083 7.87621 10.4876 7.97463 10.4483 8.06613C10.409 8.15763 10.3519 8.24039 10.2802 8.30958L8.03025 10.5596C7.8896 10.7002 7.69887 10.7792 7.5 10.7792C7.30113 10.7792 7.1104 10.7002 6.96975 10.5596L4.71975 8.30958C4.57915 8.16893 4.50016 7.9782 4.50016 7.77933C4.50016 7.58045 4.57915 7.38972 4.71975 7.24908Z" fill="#54ACD2"/>
</svg>
