<svg width="169" height="162" viewBox="0 0 169 162" fill="none" xmlns="http://www.w3.org/2000/svg">
<g clip-path="url(#clip0_46_25)">
<rect width="169" height="162" fill="white"/>
<path d="M34.0327 133.833C48.2042 89.2686 28.0858 4.3906 94.4966 1.34611C144.926 -0.962949 129.401 78.3236 126.726 119.167C126.726 119.167 113.147 131.399 84.7282 129.258C56.3092 127.122 34.0327 133.833 34.0327 133.833V133.833Z" fill="#4166AE"/>
<path d="M63.5878 112.5C66.7134 109.223 66.7787 106.53 74.2857 105.637C101.656 102.36 105.113 99.9865 105.048 107.752C104.999 115.501 86.1849 130.799 74.0791 126.673C61.9896 122.542 57.8311 118.567 63.5878 112.5Z" fill="white"/>
<path d="M90.1695 71.7371L104.015 73.8082L98.2691 109.547L117.953 121.033L73.9052 159.514C73.9052 159.514 64.3706 139.149 58.0975 125.684C54.5316 118.032 75.5088 105.616 75.5088 105.616L90.1641 71.7317L90.1695 71.7371Z" fill="#40B7E3"/>
<path d="M102.678 78.302L83.0267 88.252L78.5801 98.5373L101.84 87.3327L102.678 78.302Z" fill="#3BA2C8"/>
<path d="M119.752 67.0973C121.921 61.3653 121.426 53.2755 116.615 52.0858C115.18 51.7289 113.452 52.0155 111.69 52.7347C100.068 51.4369 117.507 15.7574 88.691 11.507C72.655 9.13844 53.5042 20.0672 54.5044 59.8944C54.923 76.6364 66.795 89.393 66.795 89.393C81.9722 92.4591 97.6005 87.165 105.662 76.5336C111.065 75.8469 116.996 74.3652 119.746 67.0973H119.752Z" fill="#40B7E3"/>
<path d="M116.831 63.7689C117.507 63.1169 117.78 62.1349 117.755 61.1904C117.746 60.2292 117.381 59.3014 116.881 58.5116C116.36 57.7217 115.658 57.1116 114.898 56.6352C114.125 56.1796 113.277 55.8788 112.357 55.8119C112.856 56.5976 113.382 57.2161 113.881 57.822C114.339 58.4573 114.848 59.0005 115.205 59.6149C115.999 60.8059 116.57 61.9844 116.835 63.7731L116.831 63.7689Z" fill="#4166AE"/>
<path d="M63.8651 141.668L56.6408 183.14C49.6773 180.787 43.127 177.553 37.0986 173.573C37.0714 173.649 37.0986 173.73 37.0986 173.806C37.0714 173.73 37.0714 173.649 37.0714 173.573C34.6796 172.021 32.3911 170.34 30.1841 168.561L32.054 138.857C32.2334 135.936 33.2499 133.168 34.9133 130.815C35.5113 129.988 36.1854 129.215 36.941 128.512L37.5933 127.89C38.6098 126.933 39.7513 126.132 40.9201 125.511H40.9472C44.6111 123.548 48.8456 123.158 52.6943 124.272C54.2544 124.71 55.7602 125.386 57.1409 126.338C57.8421 126.776 58.5216 127.322 59.1413 127.917C59.636 128.355 60.0763 128.874 60.5166 129.393C62.6475 131.951 63.8434 135.131 64.0228 138.391C64.0989 139.478 64.05 140.587 63.8651 141.674V141.668Z" fill="#4166AE"/>
<path d="M81.2003 187.736C79.4553 187.66 77.7702 187.558 76.0524 187.374C69.3228 186.703 62.8214 185.254 56.6407 183.134C49.6773 180.782 43.127 177.548 37.0985 173.568C37.0442 173.206 37.0224 172.816 36.9953 172.454C36.892 170.751 36.9409 169.015 37.2018 167.257C38.6043 157.767 39.5936 146.189 40.1916 137.396C40.2459 136.31 40.322 135.277 40.3982 134.293C40.4525 133.568 40.5014 132.87 40.5558 132.227C40.7352 129.458 40.8439 127.236 40.92 125.813V125.684C40.9472 125.608 40.9472 125.554 40.9472 125.505C41.0015 124.575 41.0233 124.083 41.0233 124.083C46.4266 122.428 52.8247 118.708 59.5272 114.311C60.6198 113.587 61.7125 112.862 62.8268 112.116L63.1367 113.019L63.6042 114.441L66.6428 123.618L68.4095 128.917L68.8281 130.134C69.0347 130.729 69.2467 131.372 69.4532 132.021L75.0903 148.98C75.0903 148.98 75.2479 149.547 75.5089 150.607C75.585 150.84 75.6393 151.126 75.7154 151.408C75.7698 151.613 75.8187 151.819 75.8731 152.057C75.9763 152.446 76.0796 152.857 76.1829 153.322C76.4167 154.328 76.6776 155.517 76.9602 156.837C78.341 163.169 80.0533 172.53 80.5751 181.788C80.6784 183.572 80.885 185.589 81.2003 187.736V187.736Z" fill="#4166AE"/>
<path d="M139.805 168.344C124.835 180.522 105.705 187.812 84.8641 187.812C83.641 187.812 82.4234 187.785 81.2003 187.736C79.4553 187.66 77.7702 187.558 76.0524 187.374C76.0796 184.118 76.1557 180.755 76.3405 177.445C76.9113 167.209 76.0035 162.785 75.7698 157.902C75.7154 156.788 75.6937 155.653 75.7426 154.414C75.7698 153.663 75.8187 152.889 75.8731 152.062C75.9274 151.646 75.9763 151.208 76.0307 150.769C76.683 145.47 80.3957 137.921 86.609 129.361C88.0115 127.446 89.5227 125.51 91.1317 123.52C94.3009 119.67 97.8886 115.663 101.889 111.656C102.824 110.699 103.787 109.742 104.749 108.812C104.749 108.812 104.776 108.942 104.852 109.201C105.189 110.288 106.57 113.392 111.843 115.56C112.75 115.95 113.794 116.285 114.963 116.593C117.067 117.161 121.774 117.934 126.4 119.465C131.211 121.044 135.962 123.472 137.625 127.322C139.887 143.74 140.822 157.361 139.811 168.35L139.805 168.344Z" fill="#4166AE"/>
<path d="M41.257 131.297V131.351C41.2298 134.763 41.2027 138.229 41.0233 141.69C40.8167 145.156 40.4253 148.569 40.0883 152.008C39.6969 155.447 39.311 158.886 38.8435 162.326C38.6097 164.029 38.3488 165.738 38.0879 167.42C37.7998 169.074 37.6204 170.729 37.6476 172.411V172.465L37.6204 173.498V173.573C37.6204 173.573 37.6204 173.601 37.5932 173.649L37.6204 173.752V173.909C37.4356 173.806 37.2834 173.676 37.0985 173.573H37.0714C36.8648 173.444 36.6528 173.287 36.4462 173.135L36.3429 172.465C36.1092 170.734 36.0331 168.95 36.2125 167.192L36.5767 162.023C36.8376 158.611 37.1746 155.171 37.5117 151.759L38.7347 141.55C39.099 138.137 39.4903 134.698 39.9578 131.259C40.0883 130.02 40.2949 128.804 40.4525 127.614C40.6319 126.424 40.7895 125.186 40.9961 123.969C41.0722 125.186 41.1755 126.424 41.1755 127.668L41.2516 131.313L41.257 131.297Z" fill="#4166AE"/>
<path d="M71.7855 140.111C69.073 130.577 67.0019 122.515 63.7512 122.828C60.4896 123.147 49.8569 131.794 49.8569 131.794L55.0591 117.961L68.2576 107.189C68.2576 107.189 62.702 112.045 65.6701 117.199C68.2087 121.622 77.1345 143.01 75.2808 155.539L71.7855 140.106V140.111Z" fill="white"/>
<path d="M75.2808 155.544C76.1288 139.138 87.9954 123.418 90.9743 120.276C93.9423 117.134 104.537 107.93 104.102 103.491C107.266 109.385 112.294 114.609 112.294 114.609L104.629 131.194C104.629 131.194 98.2258 123.115 94.5675 123.466C90.9036 123.823 84.0598 136.32 81.6571 141.047C79.249 145.773 75.2862 155.55 75.2862 155.55L75.2808 155.544Z" fill="white"/>
</g>
<defs>
<clipPath id="clip0_46_25">
<rect width="169" height="162" fill="white"/>
</clipPath>
</defs>
</svg>
