<svg width="153" height="45" viewBox="0 0 153 45" fill="none" xmlns="http://www.w3.org/2000/svg">
<path d="M3.49751 23.3848H1.28161L7.6907 5.93022H9.87251L16.2816 23.3848H14.0657L8.84979 8.69158H8.71342L3.49751 23.3848ZM4.3157 16.5666H13.2475V18.4416H4.3157V16.5666ZM17.5004 23.3848V21.4416H18.0117C18.739 21.4416 19.3043 21.2086 19.7077 20.7427C20.1112 20.2768 20.4009 19.524 20.5771 18.4842C20.7589 17.4444 20.881 16.0666 20.9435 14.3507L21.2504 5.93022H31.8867V23.3848H29.7731V7.80522H23.2617L22.989 14.7598C22.9208 16.5893 22.7532 18.1461 22.4862 19.4302C22.2191 20.7143 21.7504 21.6944 21.0799 22.3706C20.4094 23.0467 19.4322 23.3848 18.1481 23.3848H17.5004ZM37.6779 13.2598H42.6552C43.9052 13.2598 44.9592 13.4643 45.8171 13.8734C46.6808 14.2825 47.3342 14.8592 47.7773 15.6035C48.2262 16.3478 48.4506 17.2257 48.4506 18.237C48.4506 19.2484 48.2262 20.1404 47.7773 20.9132C47.3342 21.6859 46.6808 22.291 45.8171 22.7285C44.9592 23.166 43.9052 23.3848 42.6552 23.3848H36.1097V5.93022H38.2234V21.5439H42.6552C43.4506 21.5439 44.1239 21.3848 44.6751 21.0666C45.2319 20.7427 45.6523 20.3279 45.9364 19.8223C46.2262 19.3109 46.3711 18.7711 46.3711 18.2029C46.3711 17.3677 46.0501 16.649 45.408 16.0467C44.766 15.4387 43.8484 15.1348 42.6552 15.1348H37.6779V13.2598ZM51.7894 23.3848V5.93022H62.3235V7.80522H53.9031V13.2598H58.3349C59.5849 13.2598 60.6388 13.4643 61.4968 13.8734C62.3604 14.2825 63.0138 14.8592 63.457 15.6035C63.9059 16.3478 64.1303 17.2257 64.1303 18.237C64.1303 19.2484 63.9059 20.1404 63.457 20.9132C63.0138 21.6859 62.3604 22.291 61.4968 22.7285C60.6388 23.166 59.5849 23.3848 58.3349 23.3848H51.7894ZM53.9031 21.5439H58.3349C59.1303 21.5439 59.8036 21.3848 60.3548 21.0666C60.9116 20.7427 61.332 20.3279 61.6161 19.8223C61.9059 19.3109 62.0508 18.7711 62.0508 18.2029C62.0508 17.3677 61.7298 16.649 61.0877 16.0467C60.4457 15.4387 59.5281 15.1348 58.3349 15.1348H53.9031V21.5439ZM68.3256 23.3848H66.1097L72.5188 5.93022H74.7006L81.1097 23.3848H78.8938L73.6779 8.69158H73.5415L68.3256 23.3848ZM69.1438 16.5666H78.0756V18.4416H69.1438V16.5666ZM90.5785 23.3848V5.93022H96.6808C97.8967 5.93022 98.8995 6.14045 99.6893 6.5609C100.479 6.97567 101.067 7.53533 101.453 8.23988C101.84 8.93874 102.033 9.71431 102.033 10.5666C102.033 11.3166 101.9 11.9359 101.632 12.4245C101.371 12.9132 101.025 13.2995 100.593 13.5836C100.167 13.8677 99.7035 14.0779 99.2035 14.2143V14.3848C99.7376 14.4189 100.275 14.6064 100.814 14.9473C101.354 15.2882 101.806 15.7768 102.169 16.4132C102.533 17.0495 102.715 17.8279 102.715 18.7484C102.715 19.6234 102.516 20.4103 102.118 21.1092C101.721 21.8081 101.093 22.362 100.235 22.7711C99.3768 23.1802 98.2603 23.3848 96.8853 23.3848H90.5785ZM92.6921 21.5098H96.8853C98.266 21.5098 99.2461 21.2427 99.8256 20.7086C100.411 20.1689 100.703 19.5154 100.703 18.7484C100.703 18.1575 100.553 17.612 100.252 17.112C99.9506 16.6064 99.5217 16.2029 98.9648 15.9018C98.408 15.595 97.7489 15.4416 96.9876 15.4416H92.6921V21.5098ZM92.6921 13.6007H96.6126C97.2489 13.6007 97.8228 13.4757 98.3342 13.2257C98.8512 12.9757 99.2603 12.6234 99.5614 12.1689C99.8683 11.7143 100.022 11.1802 100.022 10.5666C100.022 9.79954 99.7546 9.14897 99.2205 8.61488C98.6864 8.07511 97.8398 7.80522 96.6808 7.80522H92.6921V13.6007ZM106.188 5.93022H108.267V19.6689H108.438L117.983 5.93022H120.029V23.3848H117.915V9.68022H117.745L108.233 23.3848H106.188V5.93022ZM123.304 7.80522V5.93022H136.395V7.80522H130.906V23.3848H128.792V7.80522H123.304ZM138.333 23.3848H136.118L142.527 5.93022H144.708L151.118 23.3848H148.902L143.686 8.69158H143.549L138.333 23.3848ZM139.152 16.5666H148.083V18.4416H139.152V16.5666Z" fill="white"/>
<path d="M4.52344 34.6826H5.98828L8.53516 40.9014H8.62891L11.1758 34.6826H12.6406V42.6826H11.4922V36.8936H11.418L9.05859 42.6709H8.10547L5.74609 36.8896H5.67188V42.6826H4.52344V34.6826ZM14.3955 42.6826V34.6826H19.4111V35.7217H15.6025V38.1592H19.1494V39.1943H15.6025V41.6436H19.458V42.6826H14.3955ZM20.418 44.6162V41.6592H20.9453C21.125 41.5081 21.293 41.2933 21.4492 41.0146C21.6055 40.736 21.7383 40.3597 21.8477 39.8857C21.957 39.4118 22.0326 38.8037 22.0742 38.0615L22.2617 34.6826H27.1953V41.6592H28.1016V44.6045H26.9453V42.6826H21.5742V44.6162H20.418ZM22.3672 41.6592H26.0391V35.7217H23.3555L23.2305 38.0615C23.1966 38.6266 23.1406 39.1344 23.0625 39.585C22.987 40.0355 22.8893 40.4339 22.7695 40.7803C22.6523 41.124 22.5182 41.417 22.3672 41.6592ZM29.4238 34.6826H30.6191V40.5576H30.6934L34.7637 34.6826H35.8809V42.6826H34.6738V36.8154H34.5996L30.5371 42.6826H29.4238V34.6826ZM44.7393 41.6162L44.6338 44.5732H43.4307V42.6826H42.8682V41.6162H44.7393ZM37.6416 42.6826V34.6826H38.7979V41.6357H42.6572V34.6826H43.8174V42.6826H37.6416ZM46.0635 34.6826H47.2588V40.5576H47.333L51.4033 34.6826H52.5205V42.6826H51.3135V36.8154H51.2393L47.1768 42.6826H46.0635V34.6826ZM54.2813 42.6826V34.6826H55.4883V38.1592H59.4766V34.6826H60.6875V42.6826H59.4766V39.1943H55.4883V42.6826H54.2813ZM69.0898 37.2842H67.8711C67.8242 37.0238 67.737 36.7946 67.6094 36.5967C67.4818 36.3988 67.3255 36.2308 67.1406 36.0928C66.9557 35.9548 66.7487 35.8506 66.5195 35.7803C66.293 35.71 66.0521 35.6748 65.7969 35.6748C65.3359 35.6748 64.9232 35.7907 64.5586 36.0225C64.1966 36.2542 63.9102 36.5941 63.6992 37.042C63.4909 37.4899 63.3867 38.0368 63.3867 38.6826C63.3867 39.3337 63.4909 39.8831 63.6992 40.3311C63.9102 40.779 64.1979 41.1175 64.5625 41.3467C64.9271 41.5758 65.3372 41.6904 65.793 41.6904C66.0456 41.6904 66.2852 41.6566 66.5117 41.5889C66.7409 41.5186 66.9479 41.4157 67.1328 41.2803C67.3177 41.1449 67.474 40.9795 67.6016 40.7842C67.7318 40.5863 67.8216 40.3597 67.8711 40.1045L69.0898 40.1084C69.0247 40.5016 68.8984 40.8636 68.7109 41.1943C68.526 41.5225 68.2878 41.8063 67.9961 42.0459C67.707 42.2829 67.3763 42.4665 67.0039 42.5967C66.6315 42.7269 66.2253 42.792 65.7852 42.792C65.0924 42.792 64.4753 42.6279 63.9336 42.2998C63.3919 41.9691 62.9648 41.4964 62.6523 40.8818C62.3424 40.2673 62.1875 39.5342 62.1875 38.6826C62.1875 37.8285 62.3438 37.0954 62.6563 36.4834C62.9688 35.8688 63.3958 35.3975 63.9375 35.0693C64.4792 34.7386 65.0951 34.5732 65.7852 34.5732C66.2096 34.5732 66.6055 34.6344 66.9727 34.7568C67.3424 34.8766 67.6745 35.0537 67.9688 35.2881C68.263 35.5199 68.5065 35.8037 68.6992 36.1396C68.8919 36.473 69.0221 36.8545 69.0898 37.2842ZM75.2803 42.6826L72.5928 39.0967H71.7412V42.6826H70.5342V34.6826H71.7412V38.0615H72.1357L75.1592 34.6826H76.6318L73.4326 38.2646L76.7529 42.6826H75.2803ZM77.8711 34.6826H79.0664V40.5576H79.1406L83.2109 34.6826H84.3281V42.6826H83.1211V36.8154H83.0469L78.9844 42.6826H77.8711V34.6826ZM86.0889 42.6826V34.6826H91.1045V35.7217H87.2959V38.1592H90.8428V39.1943H87.2959V41.6436H91.1514V42.6826H86.0889ZM96.3037 42.6826H95.0225L97.9014 34.6826H99.2959L102.175 42.6826H100.894L98.6318 36.1357H98.5693L96.3037 42.6826ZM96.5186 39.5498H100.675V40.5654H96.5186V39.5498ZM103.33 42.6826V34.6826H104.537V38.1592H108.525V34.6826H109.736V42.6826H108.525V39.1943H104.537V42.6826H103.33ZM112.17 42.6826H110.889L113.768 34.6826H115.162L118.041 42.6826H116.76L114.498 36.1357H114.436L112.17 42.6826ZM112.385 39.5498H116.541V40.5654H112.385V39.5498ZM118.591 42.6826V41.6357L118.825 41.6279C119.143 41.6201 119.393 41.512 119.575 41.3037C119.76 41.0954 119.894 40.7594 119.978 40.2959C120.063 39.8324 120.121 39.2139 120.149 38.4404L120.286 34.6826H125.345V42.6826H124.153V35.7061H121.423L121.298 38.7607C121.264 39.6175 121.178 40.3376 121.04 40.9209C120.902 41.5016 120.668 41.9404 120.337 42.2373C120.009 42.5342 119.541 42.6826 118.935 42.6826H118.591ZM127.103 34.6826H128.298V40.5576H128.372L132.442 34.6826H133.56V42.6826H132.353V36.8154H132.278L128.216 42.6826H127.103V34.6826ZM137.996 42.792C137.46 42.792 136.98 42.6995 136.559 42.5146C136.139 42.3298 135.807 42.0732 135.563 41.7451C135.32 41.4144 135.19 41.0316 135.172 40.5967H136.398C136.414 40.8337 136.493 41.0394 136.637 41.2139C136.783 41.3857 136.973 41.5186 137.207 41.6123C137.441 41.7061 137.702 41.7529 137.988 41.7529C138.303 41.7529 138.582 41.6982 138.824 41.5889C139.069 41.4795 139.26 41.3271 139.398 41.1318C139.536 40.9339 139.605 40.7061 139.605 40.4482C139.605 40.18 139.536 39.9443 139.398 39.7412C139.263 39.5355 139.064 39.374 138.801 39.2568C138.54 39.1396 138.225 39.0811 137.855 39.0811H137.18V38.0967H137.855C138.152 38.0967 138.413 38.0433 138.637 37.9365C138.863 37.8298 139.04 37.6813 139.168 37.4912C139.296 37.2985 139.359 37.0732 139.359 36.8154C139.359 36.568 139.303 36.3532 139.191 36.1709C139.082 35.986 138.926 35.8415 138.723 35.7373C138.522 35.6331 138.285 35.5811 138.012 35.5811C137.751 35.5811 137.508 35.6292 137.281 35.7256C137.057 35.8193 136.875 35.9548 136.734 36.1318C136.594 36.3063 136.518 36.516 136.508 36.7607H135.34C135.353 36.3285 135.48 35.9482 135.723 35.6201C135.967 35.292 136.29 35.0355 136.691 34.8506C137.092 34.6657 137.538 34.5732 138.027 34.5732C138.54 34.5732 138.983 34.6735 139.355 34.874C139.73 35.0719 140.02 35.3363 140.223 35.667C140.428 35.9977 140.53 36.3597 140.527 36.7529C140.53 37.2008 140.405 37.5811 140.152 37.8936C139.902 38.2061 139.569 38.4157 139.152 38.5225V38.585C139.684 38.6657 140.095 38.8766 140.387 39.2178C140.681 39.5589 140.827 39.9821 140.824 40.4873C140.827 40.9274 140.704 41.3219 140.457 41.6709C140.212 42.0199 139.878 42.2946 139.453 42.4951C139.029 42.693 138.543 42.792 137.996 42.792ZM143.258 37.9092H145.414C146.008 37.9092 146.513 38.0055 146.93 38.1982C147.346 38.391 147.664 38.6631 147.883 39.0146C148.104 39.3662 148.214 39.7803 148.211 40.2568C148.214 40.7334 148.104 41.154 147.883 41.5186C147.664 41.8831 147.346 42.1683 146.93 42.374C146.513 42.5798 146.008 42.6826 145.414 42.6826H142.418V34.6826H143.629V41.667H145.414C145.76 41.667 146.052 41.5993 146.289 41.4639C146.529 41.3285 146.71 41.1527 146.832 40.9365C146.957 40.7204 147.02 40.4886 147.02 40.2412C147.02 39.8818 146.882 39.5732 146.605 39.3154C146.329 39.055 145.932 38.9248 145.414 38.9248H143.258V37.9092ZM150.16 34.6826V42.6826H148.949V34.6826H150.16Z" fill="white"/>
</svg>
