<svg width="48" height="48" viewBox="0 0 48 48" fill="none" xmlns="http://www.w3.org/2000/svg">
<g clip-path="url(#clip0_409_4871)">
<path d="M24.4004 17.2002C26.0572 17.2002 27.4004 15.8571 27.4004 14.2002C27.4004 12.5433 26.0572 11.2002 24.4004 11.2002C22.7435 11.2002 21.4004 12.5433 21.4004 14.2002C21.4004 15.8571 22.7435 17.2002 24.4004 17.2002Z" stroke="#6184FF" stroke-width="1.5" stroke-miterlimit="10"/>
<path d="M18.7602 25.9602L16.0002 23.2002L13.2402 25.9602" stroke="#6184FF" stroke-width="1.5" stroke-miterlimit="10"/>
<path d="M16 23.2002V29.8002" stroke="#6184FF" stroke-width="1.5" stroke-miterlimit="10"/>
<path d="M30.04 27.04L32.8 29.8L35.56 27.04" stroke="#6184FF" stroke-width="1.5" stroke-miterlimit="10"/>
<path d="M32.7998 29.8002V23.2002" stroke="#6184FF" stroke-width="1.5" stroke-miterlimit="10"/>
<path d="M32.4548 35.3357C32.7372 35.7206 32.8552 36.2019 32.7828 36.6738C32.7103 37.1457 32.4534 37.5695 32.0685 37.8519C31.6836 38.1344 31.2023 38.2524 30.7304 38.1799C30.2585 38.1075 29.8347 37.8506 29.5523 37.4657L24.3998 30.4457L19.2548 37.4657C18.9723 37.8506 18.5485 38.1075 18.0766 38.1799C17.6048 38.2524 17.1234 38.1344 16.7385 37.8519C16.3536 37.5695 16.0967 37.1457 16.0243 36.6738C15.9518 36.2019 16.0698 35.7206 16.3523 35.3357L21.3998 28.4507V22.6307L16.0148 18.7157C15.6886 18.4869 15.4666 18.138 15.3977 17.7455C15.3287 17.3531 15.4185 16.9494 15.6473 16.6232C15.876 16.297 16.225 16.075 16.6174 16.0061C17.0098 15.9371 17.4136 16.0269 17.7398 16.2557L22.3373 19.6007H26.4623L31.0223 16.2857C31.3445 16.0519 31.7464 15.9558 32.1395 16.0184C32.3342 16.0494 32.5208 16.1184 32.6888 16.2215C32.8568 16.3247 33.0028 16.4599 33.1185 16.6194C33.2343 16.779 33.3174 16.9598 33.3633 17.1515C33.4091 17.3432 33.4168 17.542 33.3858 17.7367C33.3548 17.9313 33.2858 18.118 33.1827 18.2859C33.0795 18.4539 32.9443 18.5999 32.7848 18.7157L27.3998 22.6307V28.4507L32.4548 35.3357Z" stroke="#6184FF" stroke-width="1.5" stroke-miterlimit="10"/>
</g>
<circle cx="24" cy="24" r="23.5" stroke="#E5E5E5"/>
<defs>
<clipPath id="clip0_409_4871">
<rect width="28.8" height="28.8" fill="white" transform="translate(10 10)"/>
</clipPath>
</defs>
</svg>
