<svg width="169" height="162" viewBox="0 0 169 162" fill="none" xmlns="http://www.w3.org/2000/svg">
<g clip-path="url(#clip0_46_26)">
<rect width="169" height="162" fill="white"/>
<g clip-path="url(#clip1_46_26)">
<path d="M144.35 172.455C143.924 172.843 143.499 173.226 143.068 173.599C141.642 174.854 140.173 176.059 138.657 177.218C136.715 178.705 134.698 180.112 132.618 181.432C132.517 181.493 132.421 181.553 132.32 181.619C131.575 182.082 130.825 182.541 130.064 182.98C129.117 183.539 128.153 184.078 127.18 184.598C125.312 185.601 123.397 186.543 121.439 187.415C119.369 188.338 117.257 189.179 115.102 189.94C114.671 190.092 114.234 190.243 113.798 190.389C113.133 190.611 112.462 190.828 111.787 191.034C110.111 191.558 108.413 192.037 106.689 192.461C105.013 192.879 103.316 193.247 101.597 193.564C99.219 189.089 97.6973 185.298 97.2823 182.496C96.6863 178.438 98.9849 173.211 103.034 168.398C104.598 166.533 106.429 164.733 108.456 163.085C108.605 162.964 108.759 162.843 108.914 162.722C110.717 161.296 112.665 159.99 114.718 158.876C116.905 157.687 119.209 156.704 121.577 156.013C121.875 155.918 122.178 155.837 122.482 155.756C122.902 155.645 123.322 155.545 123.748 155.459C125.807 155.01 127.903 154.794 130 154.849C131.287 154.884 132.575 155.02 133.857 155.272C133.857 155.272 136.731 158.987 141.338 164.925C142.738 166.729 146.42 170.518 145.989 170.913C145.558 171.308 144.903 171.946 144.35 172.455Z" fill="#4166AE"/>
<path d="M93.1586 80.921L61.6489 81.1831L66.6345 143.694L111.345 156.991L107.599 137.238L93.1586 80.921Z" fill="#40B7E3"/>
<path d="M63.0854 99.2178L98.5325 101.879L104.577 125.458L63.0854 99.2178Z" fill="#3BA2C8"/>
<path d="M109.058 117.243C110.08 125.705 66.1526 107.806 63.0852 99.2178L35.2788 18.5559C151.777 -30.0942 122.558 96.8496 119.058 105.386C115.558 113.923 108.62 118.665 108.62 118.665C108.62 118.665 108.035 108.78 109.058 117.243Z" fill="#40B7E3"/>
<path d="M61.6488 36.9282C61.3668 15.1939 97.6759 20.1083 57.5039 12.5275C18.9282 5.24911 36.9391 44.2771 42.6802 51.6916C56.2535 69.2121 48.3734 66.5205 57.4933 72.2666L69.4757 76.3543C63.0854 51.1522 61.8563 52.6896 61.6488 36.9332V36.9282Z" fill="#4166AE"/>
<path d="M79.5692 34.1359C108.238 39.3073 116.267 29.7204 116.267 29.7204C123.152 16.5045 122.295 -4.08566 89.269 2.13926C66.7674 6.3833 35.8643 12.3915 40.1315 24.2012C57.4933 72.2566 52.2683 29.2114 79.5692 34.1359Z" fill="#4166AE"/>
<path d="M60.1666 80.6205C64.0875 77.876 63.0049 70.1881 57.7486 63.4491C52.4922 56.71 45.0526 53.4717 41.1317 56.2162C37.2108 58.9606 38.2933 66.6485 43.5497 73.3876C48.806 80.1266 56.2456 83.3649 60.1666 80.6205Z" fill="#40B7E3"/>
<path d="M43.4463 61.3038C48.0754 59.958 52.3639 63.5266 54.2262 67.2716C54.4763 67.8311 54.737 68.3855 54.9711 68.945C54.6306 68.4309 54.322 67.9067 53.9974 67.3926C51.7999 63.9349 48.0115 60.6435 43.4463 61.3038V61.3038Z" fill="#4166AE"/>
<path d="M72.9448 194.215C64.3305 193.03 56.1046 190.601 48.4852 187.123C46.4739 168.715 45.9951 155.746 47.985 154.244C49.5227 153.08 50.8157 151.623 51.949 150.04C52.3481 149.481 52.7259 148.906 53.093 148.322C56.8441 142.293 58.866 135.322 63.3461 135.322C63.8144 135.322 64.4475 135.363 65.2137 135.438C65.4585 135.463 65.7139 135.494 65.9853 135.524C67.0601 135.645 68.3424 135.821 69.7843 136.038C69.8322 136.043 69.8854 136.053 69.9386 136.063C78.5051 137.349 92.6105 140.01 102.725 141.482C103.428 141.582 104.114 141.683 104.774 141.769C105.88 141.92 106.923 142.056 107.892 142.162C108.115 142.187 108.333 142.213 108.546 142.233C109.509 142.339 110.382 142.414 111.148 142.465C111.659 142.495 112.122 142.51 112.537 142.515C113.681 142.525 115.059 143.609 116.618 145.62C117.081 146.21 117.554 146.88 118.044 147.631C119.422 149.748 120.917 152.485 122.481 155.756C124.982 160.958 127.664 167.51 130.388 175.066C131.128 177.117 131.873 179.239 132.617 181.432C132.516 181.493 132.421 181.553 132.319 181.619C131.575 182.082 130.824 182.541 130.063 182.979C129.116 183.539 128.153 184.078 127.18 184.597C125.312 185.6 123.397 186.543 121.438 187.415C119.369 188.337 117.256 189.179 115.101 189.94C114.67 190.091 114.234 190.243 113.798 190.389C113.133 190.611 112.462 190.827 111.787 191.034C110.111 191.558 108.413 192.037 106.689 192.46C105.013 192.879 103.316 193.247 101.597 193.564C100.251 193.811 98.8943 194.028 97.5269 194.215C96.9629 194.295 96.3935 194.366 95.8189 194.431C94.2386 194.618 92.6424 194.764 91.0302 194.865C88.838 195.006 86.6618 195.071 84.5016 195.041C83.762 195.036 83.0277 195.021 82.2935 194.991C82.2562 194.991 82.2136 194.986 82.1764 194.986H82.0753C81.49 194.961 80.9313 194.935 80.3727 194.915C77.8772 194.794 75.3871 194.552 72.9448 194.215V194.215Z" fill="#40B7E3"/>
<path d="M146.058 170.359C146.558 171.782 142.424 169.995 143.068 173.599C141.642 174.854 140.173 176.059 138.657 177.218C136.715 178.705 134.698 180.111 132.618 181.432C132.516 181.493 132.421 181.553 132.32 181.619C130.558 179.37 131.106 179.595 128.058 176.525C122.442 170.87 112.558 154.709 112.558 154.709C112.558 154.709 106.558 146.647 106.558 133.367C106.558 133.367 111.558 144.75 131.106 153.024C134.751 155.897 138.226 158.846 140.04 160.963C140.381 161.361 145.558 168.937 146.058 170.359Z" fill="#4166AE"/>
<path d="M72.9448 194.215C64.3305 193.03 56.1045 190.601 48.4852 187.123C42.9569 184.603 37.7585 181.528 32.9538 177.974C32.3419 177.541 31.7353 177.082 31.1234 176.573C27.0477 173.403 23.2912 169.874 19.9072 166.024C20.2956 164.824 20.6947 163.695 21.0991 162.636C22.4399 159.098 23.818 156.321 24.93 154.219C28.1012 148.216 38.8657 139.564 50.5576 134.316C56.0239 131.862 63.1101 133.878 65.5576 129.573C65.5576 129.573 68.2904 141.094 72.4246 149.018C72.7119 149.572 65.799 136.567 66.1129 137.157C67.3048 139.44 68.6456 141.971 70.1195 144.728C72.466 149.118 75.1583 154.083 78.1752 159.537C82.4265 167.218 89.5669 179.94 95.8189 194.431C94.2386 194.618 92.6424 194.764 91.0302 194.865C88.838 195.006 86.6618 195.072 84.5016 195.041C83.762 195.036 83.0277 195.021 82.2934 194.991C82.2562 194.991 82.2136 194.986 82.1764 194.986H82.0753C81.49 194.961 80.9313 194.935 80.3726 194.915C77.8772 194.794 75.3871 194.552 72.9448 194.215Z" fill="#4166AE"/>
<path d="M84.5019 195.041C83.7623 195.036 83.028 195.021 82.2938 194.991C82.2565 194.991 82.2139 194.986 82.1767 194.986H82.0756C81.4903 194.961 80.9316 194.935 80.373 194.915C77.8775 194.794 75.3874 194.552 72.9451 194.215C64.3308 193.03 56.1049 190.601 48.4855 187.123C42.9572 184.602 37.7588 181.528 32.9541 177.974C32.3422 177.541 31.7357 177.082 31.1238 176.573C27.048 173.403 23.2916 169.874 19.9075 166.023C19.6362 165.721 19.3701 165.409 19.1147 165.101C19.716 164.274 20.3811 163.448 21.0994 162.636C28.176 154.647 40.5149 147.893 51.9493 150.04C52.375 150.116 52.79 150.207 53.2103 150.307C53.2103 150.307 55.8282 154.078 60.0369 160.116C65.9802 168.644 75.1001 181.699 84.5019 195.041V195.041Z" fill="#4166AE"/>
</g>
</g>
<defs>
<clipPath id="clip0_46_26">
<rect width="169" height="162" fill="white"/>
</clipPath>
<clipPath id="clip1_46_26">
<rect width="204.59" height="203.597" fill="white" transform="translate(-17 0.995117)"/>
</clipPath>
</defs>
</svg>
