<svg width="18" height="18" viewBox="0 0 18 18" fill="none" xmlns="http://www.w3.org/2000/svg">
<path d="M8.2081 16.9786C8.1274 17.0542 8.0188 17.1004 7.9 17.1004C7.7809 17.1004 7.6723 17.0542 7.5919 16.9786L3.1765 12.8302C1.8367 11.5714 1 9.78369 1 7.80039C1 3.98979 4.0891 0.900391 7.9 0.900391C11.7106 0.900391 14.8 3.98979 14.8 7.80039C14.8 9.78369 13.9633 11.5714 12.6235 12.8302L8.2081 16.9786ZM7.9 5.10039C6.4087 5.10039 5.2 6.30909 5.2 7.80039C5.2 9.29169 6.4087 10.5004 7.9 10.5004C9.3913 10.5004 10.6 9.29169 10.6 7.80039C10.6 6.30909 9.3913 5.10039 7.9 5.10039Z" fill="#768C9F"/>
</svg>
