<svg width="30" height="30" viewBox="0 0 30 30" fill="none" xmlns="http://www.w3.org/2000/svg">
<ellipse cx="14.8865" cy="15" rx="14.8865" ry="15" fill="#EFF2FC"/>
<path d="M9.3999 10.1C9.3999 9.91434 9.47365 9.73629 9.60493 9.60502C9.7362 9.47374 9.91425 9.39999 10.0999 9.39999H11.607C11.7727 9.40007 11.933 9.45892 12.0594 9.56608C12.1858 9.67323 12.27 9.82174 12.2972 9.98519L12.8152 13.0897C12.84 13.2375 12.8166 13.3894 12.7485 13.523C12.6805 13.6566 12.5714 13.7648 12.4372 13.8317L11.3536 14.3728C11.7422 15.3357 12.3209 16.2105 13.0551 16.9448C13.7894 17.679 14.6641 18.2577 15.6271 18.6463L16.1689 17.5627C16.2358 17.4287 16.3439 17.3196 16.4773 17.2516C16.6107 17.1836 16.7625 17.1601 16.9102 17.1847L20.0147 17.7027C20.1782 17.7299 20.3267 17.8141 20.4338 17.9405C20.541 18.0669 20.5998 18.2272 20.5999 18.3929V19.9C20.5999 20.0856 20.5262 20.2637 20.3949 20.395C20.2636 20.5262 20.0856 20.6 19.8999 20.6H18.4999C13.4739 20.6 9.3999 16.526 9.3999 11.5V10.1Z" fill="#227FD6"/>
</svg>
