<svg width="17" height="26" viewBox="0 0 17 26" fill="none" xmlns="http://www.w3.org/2000/svg">
<mask id="path-1-inside-1_43_171" fill="white">
<path fill-rule="evenodd" clip-rule="evenodd" d="M16.0162 5.4858C16.4284 6.48105 16.6406 7.54775 16.6406 8.625L8.43744 25.0312L0.234375 8.625C0.234375 7.54775 0.446555 6.48105 0.8588 5.4858C1.27105 4.49055 1.87528 3.58625 2.63701 2.82452C3.39874 2.06278 4.30305 1.45855 5.2983 1.0463C6.29355 0.634055 7.36025 0.421875 8.4375 0.421875C9.51475 0.421875 10.5815 0.634055 11.5767 1.0463C12.5719 1.45855 13.4763 2.06278 14.238 2.82451C14.9997 3.58625 15.604 4.49055 16.0162 5.4858Z"/>
</mask>
<path d="M16.6406 8.625L17.5351 9.07222L17.6406 8.86107V8.625H16.6406ZM16.0162 5.4858L15.0923 5.86848V5.86848L16.0162 5.4858ZM8.43744 25.0312L7.54301 25.4785L8.43743 27.2673L9.33187 25.4785L8.43744 25.0312ZM0.234375 8.625H-0.765625V8.86107L-0.660053 9.07221L0.234375 8.625ZM0.8588 5.4858L1.78268 5.86848L0.8588 5.4858ZM2.63701 2.82452L3.34412 3.53162V3.53162L2.63701 2.82452ZM5.2983 1.0463L5.68098 1.97018L5.68098 1.97018L5.2983 1.0463ZM11.5767 1.0463L11.9594 0.122421L11.9594 0.122421L11.5767 1.0463ZM14.238 2.82451L14.9451 2.11741V2.11741L14.238 2.82451ZM17.6406 8.625C17.6406 7.41643 17.4026 6.21969 16.9401 5.10312L15.0923 5.86848C15.4543 6.74241 15.6406 7.67907 15.6406 8.625H17.6406ZM15.7462 8.17778L7.54302 24.584L9.33187 25.4785L17.5351 9.07222L15.7462 8.17778ZM9.33187 24.584L1.1288 8.17779L-0.660053 9.07221L7.54301 25.4785L9.33187 24.584ZM-0.0650791 5.10312C-0.527579 6.21969 -0.765625 7.41643 -0.765625 8.625H1.23438C1.23438 7.67907 1.42069 6.74241 1.78268 5.86848L-0.0650791 5.10312ZM1.92991 2.11741C1.07532 2.972 0.397421 3.98654 -0.0650791 5.10312L1.78268 5.86848C2.14467 4.99456 2.67525 4.20049 3.34412 3.53162L1.92991 2.11741ZM4.91562 0.122421C3.79904 0.584922 2.7845 1.26282 1.92991 2.11741L3.34412 3.53162C4.01299 2.86275 4.80706 2.33217 5.68098 1.97018L4.91562 0.122421ZM8.4375 -0.578125C7.22893 -0.578125 6.03219 -0.340079 4.91562 0.122421L5.68098 1.97018C6.55491 1.60819 7.49157 1.42188 8.4375 1.42188V-0.578125ZM11.9594 0.122421C10.8428 -0.340079 9.64607 -0.578125 8.4375 -0.578125V1.42188C9.38343 1.42188 10.3201 1.60819 11.194 1.97018L11.9594 0.122421ZM14.9451 2.11741C14.0905 1.26282 13.076 0.584921 11.9594 0.122421L11.194 1.97018C12.0679 2.33217 12.862 2.86275 13.5309 3.53162L14.9451 2.11741ZM16.9401 5.10312C16.4776 3.98654 15.7997 2.972 14.9451 2.11741L13.5309 3.53162C14.1997 4.20049 14.7303 4.99456 15.0923 5.86848L16.9401 5.10312Z" fill="#227FD6" mask="url(#path-1-inside-1_43_171)"/>
<circle cx="8.4375" cy="7.25781" r="3.60156" stroke="#227FD6"/>
</svg>
