<svg width="30" height="30" viewBox="0 0 30 30" fill="none" xmlns="http://www.w3.org/2000/svg">
<ellipse cx="14.8865" cy="15" rx="14.8865" ry="15" fill="#EFF2FC"/>
<path d="M22 22L18 18M19.3333 14.6667C19.3333 15.2795 19.2126 15.8863 18.9781 16.4525C18.7436 17.0187 18.3998 17.5332 17.9665 17.9665C17.5332 18.3998 17.0187 18.7436 16.4525 18.9781C15.8863 19.2126 15.2795 19.3333 14.6667 19.3333C14.0538 19.3333 13.447 19.2126 12.8808 18.9781C12.3146 18.7436 11.8002 18.3998 11.3668 17.9665C10.9335 17.5332 10.5898 17.0187 10.3552 16.4525C10.1207 15.8863 10 15.2795 10 14.6667C10 13.429 10.4917 12.242 11.3668 11.3668C12.242 10.4917 13.429 10 14.6667 10C15.9043 10 17.0913 10.4917 17.9665 11.3668C18.8417 12.242 19.3333 13.429 19.3333 14.6667Z" stroke="#227FD6" stroke-linecap="round" stroke-linejoin="round"/>
</svg>
