<svg width="30" height="30" viewBox="0 0 30 30" fill="none" xmlns="http://www.w3.org/2000/svg">
<path d="M3 4.5C3 4.10218 3.15804 3.72064 3.43934 3.43934C3.72064 3.15804 4.10218 3 4.5 3H7.7295C8.08456 3.00016 8.42805 3.12627 8.69887 3.35589C8.96968 3.58551 9.15027 3.90375 9.2085 4.254L10.3185 10.9065C10.3715 11.2233 10.3215 11.5488 10.1756 11.835C10.0298 12.1213 9.79597 12.3531 9.5085 12.4965L7.1865 13.656C8.01916 15.7195 9.25925 17.5939 10.8327 19.1673C12.4061 20.7408 14.2805 21.9808 16.344 22.8135L17.505 20.4915C17.6483 20.2043 17.8799 19.9706 18.1658 19.8248C18.4518 19.679 18.7769 19.6288 19.0935 19.6815L25.746 20.7915C26.0963 20.8497 26.4145 21.0303 26.6441 21.3011C26.8737 21.572 26.9998 21.9154 27 22.2705V25.5C27 25.8978 26.842 26.2794 26.5607 26.5607C26.2794 26.842 25.8978 27 25.5 27H22.5C11.73 27 3 18.27 3 7.5V4.5Z" fill="white"/>
</svg>
