<svg width="123" height="30" viewBox="0 0 123 30" fill="none" xmlns="http://www.w3.org/2000/svg">
<path d="M0.310348 21.7474H1.27733L3.55103 27.2621H3.62944L5.90314 21.7474H6.87012V28.391H6.11222V23.3434H6.04689L3.95612 28.391H3.22435L1.13359 23.3434H1.06825V28.391H0.310348V21.7474Z" fill="black" fill-opacity="0.4"/>
<path d="M8.49455 28.391V21.7474H12.5323V22.4611H9.30472V24.7059H12.3233V25.4195H9.30472V27.6773H12.5846V28.391H8.49455Z" fill="black" fill-opacity="0.4"/>
<path d="M13.4176 30V27.6773H13.8489C13.997 27.5433 14.1363 27.354 14.267 27.1096C14.3999 26.8631 14.512 26.5344 14.6035 26.1235C14.6972 25.7104 14.7592 25.186 14.7897 24.5502L14.9335 21.7474H18.9059V27.6773H19.6769V29.987H18.9059V28.391H14.1886V30H13.4176ZM14.8158 27.6773H18.1349V22.4611H15.6652L15.5607 24.5502C15.5345 25.0346 15.4888 25.4736 15.4235 25.8672C15.3581 26.2586 15.2743 26.6058 15.1719 26.9085C15.0696 27.2091 14.9509 27.4654 14.8158 27.6773Z" fill="black" fill-opacity="0.4"/>
<path d="M20.9011 21.7474H21.6982V26.9766H21.7636L25.4224 21.7474H26.2064V28.391H25.3963V23.1747H25.3309L21.6852 28.391H20.9011V21.7474Z" fill="black" fill-opacity="0.4"/>
<path d="M33.5119 27.6254L33.4204 29.9611H32.5841V28.391H32.1137V27.6254H33.5119ZM27.8276 28.391V21.7474H28.5986V27.6514H32.0483V21.7474H32.8193V28.391H27.8276Z" fill="black" fill-opacity="0.4"/>
<path d="M34.7361 21.7474H35.5332V26.9766H35.5985L39.2574 21.7474H40.0414V28.391H39.2312V23.1747H39.1659L35.5201 28.391H34.7361V21.7474Z" fill="black" fill-opacity="0.4"/>
<path d="M41.6626 28.391V21.7474H42.4727V24.7059H46.0401V21.7474H46.8503V28.391H46.0401V25.4195H42.4727V28.391H41.6626Z" fill="black" fill-opacity="0.4"/>
<path d="M53.856 23.8235H53.0458C52.9979 23.5921 52.9141 23.3888 52.7943 23.2137C52.6767 23.0385 52.5329 22.8914 52.363 22.7725C52.1954 22.6514 52.0091 22.5606 51.8044 22.5C51.5997 22.4394 51.3863 22.4092 51.1641 22.4092C50.759 22.4092 50.3921 22.5108 50.0632 22.7141C49.7365 22.9174 49.4763 23.2169 49.2824 23.6127C49.0908 24.0084 48.995 24.4939 48.995 25.0692C48.995 25.6445 49.0908 26.13 49.2824 26.5257C49.4763 26.9215 49.7365 27.221 50.0632 27.4243C50.3921 27.6276 50.759 27.7292 51.1641 27.7292C51.3863 27.7292 51.5997 27.699 51.8044 27.6384C52.0091 27.5779 52.1954 27.4881 52.363 27.3692C52.5329 27.2481 52.6767 27.0999 52.7943 26.9247C52.9141 26.7474 52.9979 26.5441 53.0458 26.3149H53.856C53.795 26.6544 53.6839 26.9583 53.5228 27.2264C53.3616 27.4946 53.1612 27.7227 52.9217 27.9109C52.6821 28.0969 52.4131 28.2385 52.1148 28.3359C51.8186 28.4332 51.5017 28.4818 51.1641 28.4818C50.5935 28.4818 50.0861 28.3434 49.6418 28.0666C49.1975 27.7898 48.8479 27.3962 48.5931 26.8858C48.3383 26.3754 48.2109 25.7699 48.2109 25.0692C48.2109 24.3685 48.3383 23.763 48.5931 23.2526C48.8479 22.7422 49.1975 22.3486 49.6418 22.0718C50.0861 21.795 50.5935 21.6566 51.1641 21.6566C51.5017 21.6566 51.8186 21.7052 52.1148 21.8026C52.4131 21.8999 52.6821 22.0426 52.9217 22.2308C53.1612 22.4167 53.3616 22.6438 53.5228 22.912C53.6839 23.178 53.795 23.4818 53.856 23.8235Z" fill="black" fill-opacity="0.4"/>
<path d="M59.0984 28.391L56.7986 25.3417H55.9753V28.391H55.1652V21.7474H55.9753V24.628H56.3282L59.0069 21.7474H59.9739L57.269 24.667L60.0654 28.391H59.0984Z" fill="black" fill-opacity="0.4"/>
<path d="M61.1124 21.7474H61.9095V26.9766H61.9748L65.6337 21.7474H66.4177V28.391H65.6076V23.1747H65.5422L61.8965 28.391H61.1124V21.7474Z" fill="black" fill-opacity="0.4"/>
<path d="M68.0389 28.391V21.7474H72.0767V22.4611H68.8491V24.7059H71.8676V25.4195H68.8491V27.6773H72.129V28.391H68.0389Z" fill="black" fill-opacity="0.4"/>
<path d="M76.3987 28.391H75.5493L78.006 21.7474H78.8423L81.2989 28.391H80.4495L78.4502 22.7984H78.398L76.3987 28.391ZM76.7123 25.7958H80.1359V26.5095H76.7123V25.7958Z" fill="black" fill-opacity="0.4"/>
<path d="M82.341 28.391V21.7474H83.1512V24.7059H86.7186V21.7474H87.5287V28.391H86.7186V25.4195H83.1512V28.391H82.341Z" fill="black" fill-opacity="0.4"/>
<path d="M89.4251 28.391H88.5758L91.0324 21.7474H91.8687L94.3254 28.391H93.476L91.4767 22.7984H91.4244L89.4251 28.391ZM89.7387 25.7958H93.1624V26.5095H89.7387V25.7958Z" fill="black" fill-opacity="0.4"/>
<path d="M94.7925 28.391V27.6514H94.9885C95.2673 27.6514 95.484 27.5627 95.6386 27.3854C95.7933 27.208 95.9043 26.9215 95.9718 26.5257C96.0415 26.13 96.0883 25.6055 96.1123 24.9524L96.2299 21.7474H100.307V28.391H99.4967V22.4611H97.0009L96.8963 25.1081C96.8702 25.8045 96.806 26.3971 96.7036 26.8858C96.6012 27.3746 96.4216 27.7476 96.1646 28.005C95.9076 28.2623 95.533 28.391 95.0408 28.391H94.7925Z" fill="black" fill-opacity="0.4"/>
<path d="M101.926 21.7474H102.723V26.9766H102.788L106.447 21.7474H107.231V28.391H106.421V23.1747H106.355L102.71 28.391H101.926V21.7474Z" fill="black" fill-opacity="0.4"/>
<path d="M110.995 28.4818C110.564 28.4818 110.18 28.4083 109.842 28.2612C109.507 28.1142 109.24 27.9098 109.042 27.6481C108.846 27.3843 108.739 27.0783 108.721 26.7301H109.545C109.562 26.9442 109.636 27.1291 109.767 27.2848C109.897 27.4384 110.068 27.5573 110.28 27.6417C110.491 27.726 110.725 27.7682 110.982 27.7682C111.27 27.7682 111.524 27.7184 111.746 27.6189C111.969 27.5195 112.143 27.3811 112.269 27.2037C112.396 27.0264 112.459 26.8209 112.459 26.5874C112.459 26.343 112.398 26.1278 112.276 25.9418C112.154 25.7537 111.975 25.6066 111.74 25.5006C111.505 25.3947 111.217 25.3417 110.878 25.3417H110.342V24.628H110.878C111.143 24.628 111.376 24.5805 111.577 24.4853C111.779 24.3901 111.937 24.2561 112.05 24.083C112.166 23.91 112.223 23.7067 112.223 23.4732C112.223 23.2483 112.173 23.0526 112.073 22.886C111.973 22.7195 111.831 22.5897 111.648 22.4968C111.468 22.4038 111.254 22.3573 111.008 22.3573C110.777 22.3573 110.56 22.3994 110.355 22.4838C110.152 22.566 109.987 22.686 109.858 22.8439C109.73 22.9996 109.66 23.1877 109.649 23.4083H108.865C108.878 23.0601 108.984 22.7552 109.182 22.4935C109.38 22.2297 109.639 22.0242 109.96 21.8772C110.282 21.7301 110.636 21.6566 111.021 21.6566C111.435 21.6566 111.79 21.7398 112.086 21.9064C112.382 22.0707 112.61 22.2881 112.769 22.5584C112.928 22.8287 113.007 23.1207 113.007 23.4343C113.007 23.8084 112.908 24.1274 112.71 24.3912C112.514 24.6551 112.247 24.8378 111.91 24.9394V24.9913C112.332 25.0606 112.662 25.239 112.9 25.5266C113.137 25.8121 113.256 26.1657 113.256 26.5874C113.256 26.9485 113.157 27.2729 112.958 27.5606C112.762 27.846 112.495 28.0709 112.155 28.2353C111.815 28.3997 111.429 28.4818 110.995 28.4818Z" fill="black" fill-opacity="0.4"/>
<path d="M115.311 24.5372H117.218C117.698 24.5372 118.102 24.6151 118.43 24.7708C118.761 24.9265 119.012 25.146 119.182 25.4293C119.354 25.7126 119.44 26.0467 119.44 26.4317C119.44 26.8166 119.354 27.1561 119.182 27.4503C119.012 27.7444 118.761 27.9747 118.43 28.1412C118.102 28.3077 117.698 28.391 117.218 28.391H114.71V21.7474H115.52V27.6903H117.218C117.523 27.6903 117.781 27.6298 117.993 27.5086C118.206 27.3854 118.367 27.2275 118.476 27.035C118.587 26.8404 118.643 26.6349 118.643 26.4187C118.643 26.1008 118.52 25.8272 118.274 25.598C118.028 25.3666 117.676 25.2509 117.218 25.2509H115.311V24.5372ZM120.903 21.7474V28.391H120.093V21.7474H120.903Z" fill="black" fill-opacity="0.4"/>
<path d="M1.80492 14.1176H0L5.22038 0H6.99753L12.2179 14.1176H10.413L6.16449 2.23346H6.05342L1.80492 14.1176ZM2.47135 8.60294H9.74656V10.1195H2.47135V8.60294Z" fill="#5ABCDB"/>
<path d="M13.2106 14.1176V12.546H13.6271C14.2195 12.546 14.68 12.3575 15.0086 11.9807C15.3372 11.6039 15.5732 10.9949 15.7167 10.154C15.8648 9.31296 15.9643 8.19853 16.0152 6.81066L16.2651 0H24.9287V14.1176H23.2071V1.51654H17.9034L17.6813 7.14154C17.6257 8.62132 17.4892 9.88051 17.2717 10.9191C17.0542 11.9577 16.6724 12.7505 16.1263 13.2973C15.5801 13.8442 14.7841 14.1176 13.7382 14.1176H13.2106Z" fill="#5ABCDB"/>
<path d="M29.6458 5.92831H33.6999C34.7181 5.92831 35.5766 6.09375 36.2754 6.42463C36.9788 6.75551 37.5111 7.22197 37.872 7.82399C38.2377 8.42601 38.4205 9.13603 38.4205 9.95404C38.4205 10.7721 38.2377 11.4936 37.872 12.1186C37.5111 12.7436 36.9788 13.233 36.2754 13.5869C35.5766 13.9407 34.7181 14.1176 33.6999 14.1176H28.3685V0H30.0901V12.6287H33.6999C34.3478 12.6287 34.8962 12.5 35.3452 12.2426C35.7987 11.9807 36.1412 11.6452 36.3726 11.2362C36.6086 10.8226 36.7266 10.386 36.7266 9.92647C36.7266 9.25092 36.4651 8.66958 35.9422 8.18244C35.4192 7.69072 34.6718 7.44485 33.6999 7.44485H29.6458V5.92831Z" fill="#5ABCDB"/>
<path d="M41.14 14.1176V0H49.7203V1.51654H42.8616V5.92831H46.4714C47.4896 5.92831 48.3481 6.09375 49.0469 6.42463C49.7504 6.75551 50.2826 7.22197 50.6436 7.82399C51.0092 8.42601 51.192 9.13603 51.192 9.95404C51.192 10.7721 51.0092 11.4936 50.6436 12.1186C50.2826 12.7436 49.7504 13.233 49.0469 13.5869C48.3481 13.9407 47.4896 14.1176 46.4714 14.1176H41.14ZM42.8616 12.6287H46.4714C47.1194 12.6287 47.6678 12.5 48.1167 12.2426C48.5702 11.9807 48.9127 11.6452 49.1441 11.2362C49.3801 10.8226 49.4981 10.386 49.4981 9.92647C49.4981 9.25092 49.2367 8.66958 48.7137 8.18244C48.1907 7.69072 47.4433 7.44485 46.4714 7.44485H42.8616V12.6287Z" fill="#5ABCDB"/>
<path d="M54.6092 14.1176H52.8043L58.0247 0H59.8018L65.0222 14.1176H63.2173L58.9688 2.23346H58.8577L54.6092 14.1176ZM55.2756 8.60294H62.5508V10.1195H55.2756V8.60294Z" fill="#5ABCDB"/>
<path d="M72.7347 14.1176V0H77.7052C78.6956 0 79.5124 0.170037 80.1557 0.510111C80.799 0.845588 81.278 1.29825 81.5927 1.86811C81.9074 2.43336 82.0648 3.06066 82.0648 3.75C82.0648 4.35662 81.956 4.85754 81.7385 5.25276C81.5256 5.64798 81.2433 5.96048 80.8916 6.19026C80.5445 6.42004 80.1673 6.59007 79.76 6.70037V6.83824C80.1951 6.86581 80.6324 7.01746 81.0721 7.2932C81.5117 7.56893 81.8797 7.96415 82.1758 8.47886C82.472 8.99357 82.6201 9.62316 82.6201 10.3676C82.6201 11.0754 82.4582 11.7119 82.1342 12.2771C81.8102 12.8424 81.2988 13.2904 80.6 13.6213C79.9012 13.9522 78.9918 14.1176 77.8718 14.1176H72.7347ZM74.4564 12.6011H77.8718C78.9964 12.6011 79.7947 12.3851 80.2668 11.9531C80.7435 11.5165 80.9818 10.9881 80.9818 10.3676C80.9818 9.88971 80.8592 9.44853 80.6139 9.04412C80.3686 8.63511 80.0192 8.30882 79.5657 8.06526C79.1121 7.8171 78.5753 7.69302 77.9551 7.69302H74.4564V12.6011ZM74.4564 6.20404H77.6497C78.168 6.20404 78.6354 6.10294 79.0519 5.90074C79.4731 5.69853 79.8063 5.4136 80.0516 5.04596C80.3015 4.67831 80.4265 4.24632 80.4265 3.75C80.4265 3.1296 80.209 2.6034 79.7739 2.17142C79.3389 1.73483 78.6493 1.51654 77.7052 1.51654H74.4564V6.20404Z" fill="#5ABCDB"/>
<path d="M85.449 0H87.1429V11.1121H87.2817L95.0567 0H96.7228V14.1176H95.0012V3.03309H94.8623L87.1151 14.1176H85.449V0Z" fill="#5ABCDB"/>
<path d="M99.3903 1.51654V0H110.053V1.51654H105.583V14.1176H103.861V1.51654H99.3903Z" fill="#5ABCDB"/>
<path d="M111.632 14.1176H109.828L115.048 0H116.825L122.045 14.1176H120.241L115.992 2.23346H115.881L111.632 14.1176ZM112.299 8.60294H119.574V10.1195H112.299V8.60294Z" fill="#5ABCDB"/>
</svg>
