<svg width="20" height="20" viewBox="0 0 20 20" fill="none" xmlns="http://www.w3.org/2000/svg">
<path d="M8.33366 3.33317C5.57224 3.33317 3.33366 5.57175 3.33366 8.33317C3.33366 11.0946 5.57224 13.3332 8.33366 13.3332C11.0951 13.3332 13.3337 11.0946 13.3337 8.33317C13.3337 5.57175 11.0951 3.33317 8.33366 3.33317ZM1.66699 8.33317C1.66699 4.65127 4.65176 1.6665 8.33366 1.6665C12.0156 1.6665 15.0003 4.65127 15.0003 8.33317C15.0003 9.87376 14.4778 11.2923 13.6002 12.4212L18.0896 16.9106C18.415 17.236 18.415 17.7637 18.0896 18.0891C17.7641 18.4145 17.2365 18.4145 16.9111 18.0891L12.4217 13.5997C11.2928 14.4773 9.87425 14.9998 8.33366 14.9998C4.65176 14.9998 1.66699 12.0151 1.66699 8.33317Z" fill="#C4C4C4"/>
</svg>
