<svg width="15" height="15" viewBox="0 0 15 15" fill="none" xmlns="http://www.w3.org/2000/svg">
<path d="M7.5 5V7.5L9.375 9.375L7.5 5ZM13.125 7.5C13.125 8.23869 12.9795 8.97014 12.6968 9.65259C12.4141 10.3351 11.9998 10.9551 11.4775 11.4775C10.9551 11.9998 10.3351 12.4141 9.65259 12.6968C8.97014 12.9795 8.23869 13.125 7.5 13.125C6.76131 13.125 6.02986 12.9795 5.34741 12.6968C4.66495 12.4141 4.04485 11.9998 3.52252 11.4775C3.00019 10.9551 2.58586 10.3351 2.30318 9.65259C2.02049 8.97014 1.875 8.23869 1.875 7.5C1.875 6.00816 2.46763 4.57742 3.52252 3.52252C4.57742 2.46763 6.00816 1.875 7.5 1.875C8.99184 1.875 10.4226 2.46763 11.4775 3.52252C12.5324 4.57742 13.125 6.00816 13.125 7.5Z" stroke="#8B8B8B" stroke-linecap="round" stroke-linejoin="round"/>
</svg>
